<?xml version="1.0" encoding="utf-8"?>
<!-- Generator: Adobe Illustrator 16.0.2, SVG Export Plug-In . SVG Version: 6.00 Build 0)  -->
<!DOCTYPE svg PUBLIC "-//W3C//DTD SVG 1.1//EN" "http://www.w3.org/Graphics/SVG/1.1/DTD/svg11.dtd">
<svg version="1.1" id="Layer_1" xmlns="http://www.w3.org/2000/svg" xmlns:xlink="http://www.w3.org/1999/xlink" x="0px" y="0px"
	 width="389.334px" height="105.334px" viewBox="0 0 389.334 105.334" enable-background="new 0 0 389.334 105.334"
	 xml:space="preserve">
<path fill="#1C63AC" d="M88.097,2.405H387.05v102.027H88.097V2.405"/>
<path fill="#FFFFFF" d="M115.297,50.289c-0.611,0.238-1.421,0.477-2.43,0.715c-1.008,0.232-2.014,0.349-3.016,0.349
	c-2.322,0-4.141-0.629-5.455-1.889c-1.314-1.266-1.971-3.01-1.971-5.234c0-2.121,0.663-3.829,1.989-5.125
	c1.326-1.302,3.175-1.953,5.546-1.953c0.898,0,1.754,0.083,2.567,0.248c0.813,0.159,1.717,0.48,2.714,0.963v3.199h-0.395
	c-0.172-0.129-0.422-0.309-0.752-0.541c-0.329-0.238-0.648-0.44-0.953-0.605c-0.354-0.195-0.77-0.362-1.247-0.504
	c-0.471-0.14-0.972-0.21-1.503-0.211c-0.624,0-1.189,0.092-1.696,0.275s-0.963,0.464-1.366,0.843
	c-0.385,0.367-0.69,0.835-0.916,1.403c-0.221,0.563-0.33,1.214-0.33,1.952c0,1.511,0.399,2.665,1.2,3.466s1.983,1.201,3.548,1.201
	c0.135,0,0.281-0.003,0.44-0.01c0.165-0.006,0.314-0.015,0.449-0.026v-2.678h-2.723v-2.576h6.298V50.289z M132.04,44.247
	c0,2.177-0.624,3.906-1.87,5.189c-1.247,1.277-2.971,1.916-5.171,1.916c-2.193,0-3.914-0.639-5.161-1.916
	c-1.247-1.283-1.87-3.013-1.87-5.189c0-2.193,0.623-3.926,1.87-5.197c1.247-1.277,2.968-1.916,5.161-1.916
	c2.188,0,3.908,0.639,5.161,1.916C131.413,40.321,132.04,42.053,132.04,44.247z M127.374,47.704
	c0.341-0.415,0.595-0.904,0.761-1.467c0.165-0.568,0.248-1.234,0.248-1.999c0-0.818-0.096-1.515-0.285-2.09
	s-0.438-1.039-0.742-1.394c-0.313-0.367-0.673-0.633-1.082-0.797c-0.403-0.166-0.825-0.248-1.265-0.248
	c-0.446,0-0.868,0.079-1.266,0.238c-0.391,0.159-0.752,0.421-1.081,0.788c-0.306,0.343-0.557,0.816-0.752,1.421
	c-0.19,0.6-0.284,1.296-0.284,2.09c0,0.813,0.091,1.507,0.274,2.081c0.19,0.569,0.437,1.033,0.742,1.394
	c0.306,0.361,0.663,0.627,1.073,0.798c0.409,0.171,0.84,0.257,1.293,0.257c0.451,0,0.883-0.086,1.292-0.257
	C126.71,48.343,127.068,48.071,127.374,47.704L127.374,47.704z M146.655,37.418l-4.979,13.65h-3.94l-4.979-13.65h3.694l3.3,9.589
	l3.301-9.589H146.655z M158.677,51.068h-9.873v-13.65h9.873v2.64h-6.371v2.356h5.912v2.641h-5.912v3.373h6.371V51.068z
	 M169.598,41.597c0-0.342-0.07-0.635-0.21-0.879c-0.141-0.245-0.383-0.438-0.725-0.578c-0.238-0.098-0.516-0.155-0.835-0.174
	c-0.316-0.025-0.687-0.037-1.108-0.037h-1.275v3.677h1.083c0.563,0,1.032-0.028,1.412-0.083c0.379-0.055,0.696-0.181,0.953-0.376
	c0.244-0.189,0.421-0.397,0.53-0.623C169.54,42.292,169.598,41.983,169.598,41.597z M175.091,51.068h-4.3l-3.722-5.006h-1.624v5.006
	h-3.501v-13.65h5.904c0.807,0,1.5,0.046,2.081,0.137c0.58,0.093,1.124,0.291,1.632,0.597c0.512,0.306,0.92,0.703,1.219,1.191
	c0.306,0.483,0.459,1.092,0.459,1.824c0,1.009-0.236,1.831-0.706,2.467c-0.465,0.635-1.132,1.164-1.998,1.586L175.091,51.068z
	 M188.977,51.068h-3.392l-5.795-9.369v9.369h-3.227v-13.65h4.208l4.979,7.819v-7.819h3.227V51.068z M205.67,44.247
	c0,2.177-0.624,3.906-1.871,5.189c-1.247,1.277-2.971,1.916-5.171,1.916c-2.194,0-3.914-0.639-5.161-1.916
	c-1.246-1.283-1.87-3.013-1.87-5.189c0-2.193,0.624-3.926,1.87-5.197c1.247-1.277,2.967-1.916,5.161-1.916
	c2.188,0,3.908,0.639,5.162,1.916C205.043,40.321,205.67,42.053,205.67,44.247L205.67,44.247z M201.003,47.704
	c0.343-0.415,0.596-0.904,0.762-1.467c0.164-0.568,0.246-1.234,0.246-1.999c0-0.818-0.095-1.515-0.284-2.09
	s-0.437-1.039-0.742-1.394c-0.311-0.367-0.672-0.633-1.081-0.797c-0.404-0.166-0.826-0.248-1.266-0.248
	c-0.447,0-0.868,0.079-1.266,0.238c-0.391,0.159-0.751,0.421-1.081,0.788c-0.307,0.343-0.556,0.816-0.752,1.421
	c-0.189,0.6-0.284,1.296-0.284,2.09c0,0.813,0.092,1.507,0.274,2.081c0.189,0.569,0.438,1.033,0.743,1.394
	c0.305,0.361,0.662,0.627,1.073,0.798c0.409,0.171,0.84,0.257,1.292,0.257s0.883-0.086,1.293-0.257
	C200.34,48.343,200.697,48.071,201.003,47.704L201.003,47.704z M227.666,44.257c0,1.271-0.291,2.411-0.871,3.419
	c-0.581,1.003-1.314,1.772-2.2,2.311c-0.666,0.403-1.397,0.685-2.191,0.844c-0.795,0.159-1.736,0.238-2.823,0.238h-4.813v-13.65
	h4.951c1.112,0,2.07,0.095,2.877,0.284c0.809,0.184,1.487,0.446,2.036,0.788c0.941,0.574,1.682,1.351,2.219,2.328
	C227.393,41.791,227.666,42.936,227.666,44.257L227.666,44.257z M224.025,44.229c0-0.898-0.165-1.665-0.494-2.301
	c-0.324-0.643-0.841-1.143-1.55-1.504c-0.36-0.178-0.73-0.297-1.109-0.357c-0.373-0.067-0.938-0.101-1.696-0.101h-0.889v8.544h0.889
	c0.838,0,1.452-0.037,1.843-0.11c0.391-0.079,0.773-0.22,1.147-0.422c0.641-0.366,1.111-0.855,1.41-1.467
	C223.876,45.894,224.025,45.134,224.025,44.229L224.025,44.229z M243.813,44.247c0,2.177-0.623,3.906-1.869,5.189
	c-1.247,1.277-2.971,1.916-5.171,1.916c-2.194,0-3.916-0.639-5.161-1.916c-1.248-1.283-1.871-3.013-1.871-5.189
	c0-2.193,0.623-3.926,1.871-5.197c1.245-1.277,2.967-1.916,5.161-1.916c2.188,0,3.908,0.639,5.161,1.916
	C243.186,40.321,243.813,42.053,243.813,44.247L243.813,44.247z M239.148,47.704c0.341-0.415,0.595-0.904,0.76-1.467
	c0.165-0.568,0.248-1.234,0.248-1.999c0-0.818-0.095-1.515-0.284-2.09c-0.19-0.575-0.438-1.039-0.742-1.394
	c-0.313-0.367-0.672-0.633-1.082-0.797c-0.403-0.166-0.825-0.248-1.265-0.248c-0.447,0-0.868,0.079-1.266,0.238
	c-0.392,0.159-0.752,0.421-1.081,0.788c-0.307,0.343-0.558,0.816-0.752,1.421c-0.191,0.6-0.284,1.296-0.284,2.09
	c0,0.813,0.091,1.507,0.274,2.081c0.189,0.569,0.438,1.033,0.743,1.394c0.304,0.361,0.662,0.627,1.071,0.798s0.84,0.257,1.294,0.257
	c0.45,0,0.883-0.086,1.292-0.257C238.484,48.343,238.842,48.071,239.148,47.704L239.148,47.704z M117.934,65.633
	c0-0.659-0.136-1.225-0.405-1.695c-0.271-0.471-0.736-0.842-1.396-1.112c-0.459-0.188-0.995-0.3-1.607-0.336
	c-0.612-0.047-1.323-0.069-2.136-0.07h-2.454V69.5h2.083c1.083,0,1.989-0.054,2.719-0.159c0.73-0.106,1.342-0.348,1.837-0.725
	c0.471-0.364,0.812-0.765,1.024-1.2C117.822,66.969,117.934,66.374,117.934,65.633z M128.511,83.873h-8.281l-7.169-9.642h-3.125
	v9.642h-6.746V57.58h11.372c1.554,0,2.89,0.089,4.008,0.266s2.166,0.56,3.144,1.147c0.988,0.589,1.771,1.354,2.348,2.296
	c0.589,0.93,0.883,2.102,0.884,3.514c0,1.942-0.454,3.525-1.36,4.75c-0.895,1.224-2.178,2.242-3.85,3.055L128.511,83.873z
	 M136.993,83.873h-6.356v-19.83h6.356V83.873z M137.171,61.218h-6.71v-4.82h6.71V61.218z M162.781,73.967
	c0,3.261-0.954,5.833-2.861,7.716c-1.896,1.872-4.561,2.808-7.998,2.808s-6.109-0.936-8.017-2.808
	c-1.896-1.883-2.844-4.455-2.844-7.716c0-3.284,0.955-5.862,2.861-7.734c1.919-1.871,4.584-2.808,7.999-2.808
	c3.461,0,6.133,0.942,8.016,2.825C161.834,68.134,162.78,70.706,162.781,73.967z M154.959,78.787
	c0.412-0.506,0.717-1.111,0.917-1.818c0.212-0.718,0.319-1.706,0.319-2.967c0-1.165-0.107-2.142-0.319-2.931
	s-0.505-1.418-0.883-1.89c-0.376-0.482-0.829-0.824-1.359-1.024c-0.529-0.199-1.101-0.299-1.712-0.3
	c-0.612,0-1.16,0.082-1.643,0.247c-0.471,0.165-0.925,0.495-1.359,0.989c-0.389,0.459-0.701,1.089-0.936,1.889
	c-0.225,0.801-0.336,1.808-0.336,3.02c0,1.084,0.1,2.024,0.3,2.825c0.2,0.789,0.495,1.425,0.883,1.907
	c0.377,0.459,0.824,0.795,1.343,1.007c0.529,0.212,1.131,0.317,1.801,0.317c0.576,0,1.124-0.094,1.643-0.282
	C154.145,79.576,154.594,79.247,154.959,78.787L154.959,78.787z M193.193,83.873h-6.357v-2.066
	c-1.095,0.896-2.118,1.554-3.071,1.978c-0.954,0.424-2.055,0.636-3.303,0.636c-2.414,0-4.343-0.93-5.791-2.79
	c-1.449-1.859-2.172-4.366-2.172-7.521c0-1.684,0.241-3.173,0.723-4.468c0.496-1.307,1.167-2.425,2.015-3.354
	c0.8-0.883,1.771-1.566,2.912-2.049c1.143-0.494,2.284-0.741,3.427-0.741c1.188,0,2.158,0.13,2.913,0.388
	c0.764,0.248,1.548,0.565,2.348,0.954v-8.44h6.357V83.873z M186.836,78.398V68.67c-0.447-0.188-0.917-0.324-1.412-0.406
	c-0.494-0.083-0.947-0.123-1.359-0.124c-1.672,0-2.926,0.524-3.762,1.571c-0.836,1.036-1.253,2.479-1.253,4.326
	c0,1.942,0.334,3.354,1.007,4.238c0.67,0.871,1.748,1.307,3.231,1.307c0.576,0,1.188-0.105,1.836-0.317
	C185.77,79.04,186.342,78.752,186.836,78.398L186.836,78.398z M217.998,75.133h-14.55c0.094,1.554,0.683,2.742,1.766,3.566
	c1.095,0.824,2.701,1.236,4.821,1.236c1.341,0,2.641-0.241,3.901-0.725c1.259-0.482,2.254-1,2.983-1.554h0.707v5.103
	c-1.437,0.577-2.789,0.995-4.062,1.254c-1.271,0.259-2.679,0.388-4.22,0.389c-3.979,0-7.028-0.895-9.146-2.685
	c-2.119-1.788-3.178-4.337-3.178-7.646c0-3.271,1-5.861,3.001-7.769c2.014-1.919,4.768-2.878,8.263-2.879
	c3.228,0,5.651,0.818,7.275,2.455c1.625,1.624,2.438,3.967,2.438,7.027V75.133z M211.676,71.406c-0.034-1.33-0.365-2.33-0.987-3.002
	c-0.624-0.67-1.597-1.006-2.915-1.006c-1.224,0-2.23,0.318-3.019,0.953c-0.789,0.636-1.23,1.654-1.324,3.055H211.676z
	 M243.281,76.403c0,1.153-0.205,2.237-0.617,3.248c-0.412,1.002-1.023,1.849-1.836,2.544c-0.86,0.741-1.896,1.318-3.107,1.729
	c-1.214,0.4-2.714,0.6-4.503,0.601c-1.212,0-2.354-0.048-3.426-0.142c-1.071-0.082-2.013-0.206-2.825-0.37V78.68h0.636
	c0.564,0.212,1.153,0.412,1.766,0.601c0.612,0.177,1.395,0.265,2.35,0.265c1.234,0,2.183-0.164,2.843-0.494
	c0.67-0.329,1.146-0.788,1.429-1.378c0.271-0.576,0.423-1.206,0.459-1.889c0.036-0.693,0.054-1.577,0.054-2.649v-10.47h-6.021
	v-4.839h12.801V76.403z M260.697,78.946v-4.133c-0.859,0.071-1.79,0.172-2.79,0.301c-1.002,0.118-1.761,0.26-2.277,0.424
	c-0.637,0.2-1.124,0.494-1.466,0.883c-0.33,0.377-0.494,0.877-0.494,1.501c0,0.412,0.034,0.747,0.104,1.007
	c0.071,0.259,0.248,0.507,0.531,0.741c0.27,0.235,0.593,0.412,0.971,0.529c0.376,0.106,0.964,0.159,1.766,0.159
	c0.636,0,1.277-0.129,1.925-0.389C259.626,79.711,260.203,79.37,260.697,78.946z M260.697,82.018
	c-0.343,0.259-0.765,0.57-1.271,0.936s-0.982,0.653-1.431,0.865c-0.624,0.282-1.271,0.488-1.941,0.618
	c-0.672,0.141-1.408,0.212-2.208,0.212c-1.884,0-3.46-0.583-4.732-1.749c-1.271-1.165-1.906-2.653-1.906-4.467
	c0-1.448,0.322-2.631,0.971-3.549c0.647-0.918,1.565-1.643,2.755-2.172c1.177-0.53,2.637-0.906,4.378-1.131
	c1.743-0.223,3.55-0.388,5.422-0.494v-0.105c0-1.095-0.448-1.849-1.342-2.261c-0.896-0.424-2.215-0.635-3.956-0.635
	c-1.048,0-2.165,0.188-3.354,0.564c-1.189,0.365-2.043,0.647-2.56,0.848h-0.583v-4.785c0.671-0.177,1.76-0.383,3.267-0.618
	c1.519-0.247,3.036-0.371,4.557-0.371c3.613,0,6.22,0.56,7.821,1.679c1.611,1.106,2.418,2.848,2.418,5.226v13.49h-6.303V82.018z
	 M292.274,84.119h-6.391v-9.835c0-0.8-0.042-1.595-0.124-2.384c-0.082-0.8-0.224-1.389-0.424-1.766
	c-0.235-0.436-0.582-0.753-1.042-0.954c-0.447-0.199-1.076-0.299-1.889-0.3c-0.577,0-1.165,0.095-1.767,0.283
	c-0.588,0.188-1.23,0.488-1.924,0.899v14.056h-6.357V64.29h6.357v2.189c1.129-0.883,2.212-1.56,3.248-2.03
	c1.048-0.471,2.208-0.706,3.479-0.706c2.143,0,3.813,0.624,5.017,1.871c1.212,1.248,1.816,3.113,1.816,5.598V84.119z M317.288,75.38
	h-14.551c0.094,1.553,0.683,2.742,1.767,3.566c1.094,0.823,2.702,1.235,4.82,1.235c1.343,0,2.643-0.241,3.902-0.724
	c1.259-0.482,2.254-1.001,2.984-1.554h0.707v5.103c-1.438,0.577-2.791,0.995-4.062,1.254c-1.272,0.259-2.679,0.388-4.22,0.389
	c-3.98,0-7.028-0.896-9.147-2.685c-2.118-1.789-3.179-4.337-3.179-7.646c0-3.271,1-5.861,3.002-7.77
	c2.013-1.918,4.768-2.877,8.264-2.878c3.226,0,5.65,0.818,7.274,2.454c1.624,1.625,2.438,3.968,2.438,7.028V75.38z M310.967,71.653
	c-0.036-1.33-0.365-2.331-0.989-3.002s-1.595-1.006-2.913-1.006c-1.226,0-2.23,0.317-3.021,0.952
	c-0.788,0.637-1.229,1.655-1.323,3.056H310.967z M328.386,84.119h-6.355V64.29h6.355V84.119z M328.562,61.465h-6.709v-4.82h6.709
	V61.465z M347.784,70.346h-0.565c-0.271-0.094-0.706-0.164-1.307-0.212c-0.602-0.047-1.102-0.07-1.501-0.071
	c-0.907,0-1.708,0.06-2.401,0.177c-0.695,0.118-1.443,0.318-2.243,0.601v13.278h-6.357V64.29h6.357v2.914
	c1.4-1.201,2.619-1.996,3.655-2.384c1.036-0.4,1.989-0.601,2.861-0.601c0.223,0,0.476,0.006,0.759,0.018
	c0.282,0.012,0.53,0.029,0.742,0.053V70.346z M371.054,74.214c0,3.261-0.954,5.833-2.861,7.716
	c-1.895,1.872-4.562,2.808-7.998,2.808c-3.438,0-6.109-0.936-8.017-2.808c-1.896-1.883-2.843-4.455-2.843-7.716
	c0-3.285,0.952-5.862,2.86-7.734c1.919-1.871,4.585-2.808,7.999-2.808c3.461,0,6.133,0.942,8.017,2.825
	C370.106,68.381,371.053,70.953,371.054,74.214z M363.232,79.034c0.41-0.507,0.719-1.111,0.919-1.819
	c0.21-0.718,0.316-1.706,0.316-2.966c0-1.165-0.106-2.142-0.316-2.931c-0.213-0.789-0.509-1.419-0.885-1.89
	c-0.376-0.482-0.829-0.824-1.358-1.024s-1.102-0.3-1.713-0.3c-0.612,0-1.16,0.082-1.644,0.247c-0.47,0.165-0.924,0.494-1.358,0.989
	c-0.388,0.458-0.7,1.088-0.936,1.889c-0.225,0.801-0.336,1.807-0.336,3.02c0,1.083,0.1,2.024,0.3,2.824
	c0.2,0.79,0.494,1.426,0.884,1.907c0.376,0.46,0.822,0.795,1.342,1.007c0.529,0.212,1.13,0.318,1.801,0.318
	c0.576,0,1.124-0.094,1.642-0.283C362.419,79.823,362.867,79.494,363.232,79.034"/>
<path fill="#FFFFFF" d="M2.729,2.948h85.368v100.144H2.729V2.948"/>
<path fill="#1C63AC" d="M22.437,51.959c0-17.66,10.477-31.977,23.401-31.977S69.24,34.299,69.24,51.959S58.763,83.935,45.839,83.935
	S22.437,69.619,22.437,51.959"/>
<path fill="#009748" d="M65.42,67.494l-39.106-0.006c-1.603-3.838-2.626-8.188-2.912-12.826h44.932
	C68.048,59.302,67.022,63.655,65.42,67.494"/>
<path fill="#6F7479" d="M68.335,54.635l-44.931,0.07c-0.056-0.892-0.086-1.792-0.086-2.703c0-2.591,0.232-5.108,0.667-7.517
	l5.101,1.852c1.326,0,1.967-1.968,1.967-1.968l4.659-9.056c2.31-4.976,3.98-1.898,3.98-1.898s0.831-0.802,1.771-1.26
	c1.26-0.802,2.307,0.973,2.307,0.973s0.258-1.207,2.189-1.448c0.432-0.055,1.437-7.231,1.437-7.231s0.234-2.656,1.247-3.334
	c0.496,0.084,0.988,0.191,1.475,0.321c0.676,0.735,0.672,2.028,0.672,2.028l0.835,13.989l4.104,0.078l6.186-7.372
	c4.019,5.623,6.502,13.34,6.502,21.843C68.416,52.888,68.387,53.766,68.335,54.635"/>
<path fill="#FFFFFF" d="M46.244,53.145l0.543,1.35H46.59c-0.492-0.027-0.98-0.027-1.463,0h-0.168l0.554-1.458
	c0.016-0.082,0.084-0.376,0.299-0.788l0.035-0.093l0.006,0.016c0.477-0.875,1.591-2.225,4.146-3.24
	c0.541-0.278,1.776-0.764,4.586-1.456c3.042-0.731,5.541-0.328,5.541-0.328s0.258-1.094-0.237-1.532
	c-0.197-0.27-0.95-0.389-0.95-0.389s-0.191-0.823-0.658-0.921l-4.966-0.567l0.357-0.613c0,0,4.58,0.359,8.315-1.886h-2.614
	c-0.204,0-0.37-0.166-0.37-0.369c0-0.204,0.166-0.369,0.37-0.369h3.683c0.445-0.353,0.868-0.75,1.258-1.202h-5.977
	c-0.204,0-0.369-0.165-0.369-0.368c0-0.204,0.165-0.369,0.369-0.369h6.552c0.295-0.424,0.563-0.887,0.799-1.391l-0.008-0.019H53.124
	c-2.393-0.111-4.294,0.907-5.413,3.039l-1.859,3.06l-1.813-3.061c-1.118-2.132-3.02-3.149-5.412-3.038H26.054
	c0.243,0.525,0.521,1.005,0.825,1.442h6.555c0.204,0,0.369,0.166,0.369,0.369c0,0.205-0.165,0.37-0.369,0.37h-5.983
	c0.388,0.451,0.807,0.85,1.246,1.201h3.724c0.204,0,0.369,0.165,0.369,0.369s-0.165,0.369-0.369,0.369h-2.667
	c3.628,2.207,7.991,1.851,7.991,1.851s0.394,1.643,1.582,3.488c1.317,1.855,2.837,2.603,2.837,2.603s-0.004,0.005-0.011,0.013
	l0.511,0.267c0.181,0.094,0.251,0.317,0.156,0.498s-0.317,0.25-0.498,0.156l-0.669-0.351c-0.591,0.692-1.475,1.8-1.411,2.158h3.382
	l0.649,2.539H23.39c0.015,0.253,0.031,0.505,0.05,0.755h18.016c-4.527,1.646-7.961,5.765-8.481,10.869
	c-0.725,7.109,4.47,13.482,11.578,14.208c7.109,0.725,13.482-4.469,14.207-11.578c0.615-6.025-3.023-11.522-8.476-13.499h18.01
	c0.019-0.251,0.035-0.503,0.05-0.755H47.476l0.65-2.537h3.382c0.065-0.374-0.893-1.557-1.48-2.24
	C46.899,51.041,46.315,52.868,46.244,53.145L46.244,53.145z M58.733,45.269l-0.553,0.762l-1.346-0.762H58.733"/>
<path fill="#1C63AC" d="M37.812,67.434c0-4.449,3.606-8.056,8.055-8.056l-0.565,1.671l-1.764,0.021l1.414,1.055l-0.524,1.685
	l1.439-1.019l1.428,1.011c-2.641,0.83-6.27,2.592-9.03,6.299C37.971,69.266,37.812,68.369,37.812,67.434L37.812,67.434z
	 M45.867,59.379l0.565,1.671l1.765,0.021l-1.414,1.055l0.521,1.674c0.069-0.021,0.137-0.043,0.205-0.063
	c2.229-0.673,4.223-0.802,5.024-0.826C51.084,60.779,48.639,59.379,45.867,59.379z M53.899,66.818
	c0.016,0.205,0.023,0.41,0.023,0.616c0,4.448-3.606,8.055-8.056,8.055c-1.997,0-3.824-0.727-5.231-1.931l0.117-0.151
	c4.467-5.75,11.094-6.493,13.019-6.584L53.899,66.818"/>
<path fill="#6F7479" d="M40.047,70.889c0.1,0.089,0.182,0.184,0.246,0.285c0.065,0.102,0.105,0.203,0.12,0.305
	c0.016,0.111,0.004,0.222-0.035,0.329c-0.04,0.108-0.106,0.216-0.201,0.322c-0.034,0.038-0.072,0.077-0.116,0.116
	s-0.073,0.064-0.09,0.075l-0.235-0.21l0.027-0.03c0.021-0.009,0.049-0.023,0.082-0.044s0.072-0.056,0.116-0.104
	c0.034-0.04,0.064-0.083,0.088-0.131c0.023-0.047,0.036-0.095,0.038-0.143c0.002-0.052-0.006-0.103-0.024-0.154
	c-0.02-0.052-0.052-0.104-0.096-0.155c-0.013,0.068-0.029,0.128-0.048,0.179c-0.021,0.05-0.056,0.104-0.105,0.16
	c-0.038,0.043-0.08,0.078-0.125,0.108c-0.046,0.028-0.095,0.049-0.146,0.061c-0.069,0.015-0.142,0.011-0.215-0.009
	c-0.074-0.021-0.151-0.067-0.229-0.138c-0.128-0.114-0.195-0.249-0.2-0.405c-0.006-0.156,0.053-0.304,0.175-0.441
	c0.063-0.07,0.129-0.125,0.197-0.162s0.14-0.058,0.216-0.063c0.087-0.005,0.177,0.013,0.269,0.052
	C39.846,70.732,39.943,70.798,40.047,70.889z M39.741,71.141c-0.065-0.058-0.125-0.1-0.178-0.124
	c-0.053-0.026-0.1-0.039-0.142-0.039c-0.03,0-0.058,0.006-0.082,0.019s-0.047,0.029-0.066,0.051
	c-0.017,0.021-0.03,0.043-0.039,0.067s-0.012,0.053-0.009,0.085c0.003,0.031,0.014,0.064,0.032,0.1
	c0.02,0.034,0.049,0.068,0.087,0.104c0.038,0.033,0.074,0.056,0.109,0.067c0.034,0.013,0.068,0.016,0.1,0.01
	c0.03-0.005,0.059-0.017,0.087-0.035c0.027-0.02,0.054-0.044,0.079-0.072c0.021-0.022,0.039-0.05,0.058-0.083
	c0.018-0.032,0.029-0.06,0.036-0.079c-0.008-0.008-0.016-0.016-0.024-0.023C39.779,71.177,39.762,71.162,39.741,71.141z
	 M42.398,69.88l-0.303,0.27l-0.294-0.172l-0.422,0.375l0.137,0.312l-0.296,0.264l-0.646-1.571l0.338-0.3L42.398,69.88z
	 M41.534,69.821l-0.521-0.305l0.242,0.554L41.534,69.821z M43.31,68.587c0.046,0.063,0.076,0.127,0.088,0.193
	c0.013,0.066,0.011,0.132-0.007,0.194c-0.02,0.074-0.053,0.141-0.099,0.2c-0.044,0.059-0.112,0.121-0.2,0.188L42.56,69.76
	l-0.96-1.284l0.475-0.354c0.098-0.073,0.172-0.123,0.223-0.15s0.107-0.046,0.17-0.056c0.065-0.01,0.125-0.003,0.179,0.022
	c0.053,0.024,0.101,0.063,0.141,0.116c0.046,0.063,0.071,0.129,0.075,0.2c0.005,0.07-0.012,0.14-0.049,0.209l0.005,0.007
	c0.093-0.043,0.182-0.056,0.267-0.038C43.172,68.45,43.246,68.502,43.31,68.587L43.31,68.587z M42.512,68.36
	c-0.016-0.021-0.037-0.039-0.063-0.053c-0.025-0.013-0.055-0.016-0.088-0.008c-0.03,0.009-0.063,0.025-0.098,0.05
	c-0.049,0.034-0.097,0.07-0.145,0.105l-0.029,0.022l0.203,0.271l0.049-0.037c0.05-0.037,0.091-0.069,0.125-0.097
	c0.034-0.028,0.057-0.055,0.07-0.079c0.019-0.034,0.024-0.065,0.018-0.093C42.547,68.416,42.533,68.388,42.512,68.36z M42.98,68.825
	c-0.031-0.041-0.062-0.066-0.094-0.076c-0.03-0.012-0.068-0.009-0.113,0.007c-0.03,0.011-0.067,0.032-0.11,0.063
	c-0.044,0.031-0.089,0.065-0.136,0.101l-0.068,0.051l0.238,0.32l0.023-0.018c0.088-0.065,0.151-0.113,0.188-0.143
	c0.038-0.029,0.068-0.063,0.09-0.102c0.022-0.039,0.03-0.074,0.024-0.107S43.003,68.856,42.98,68.825z M43.885,67.458
	c-0.021-0.034-0.047-0.059-0.075-0.074c-0.029-0.016-0.063-0.02-0.104-0.013c-0.029,0.005-0.059,0.016-0.09,0.034
	c-0.03,0.017-0.066,0.038-0.105,0.063l-0.119,0.077l0.235,0.362l0.101-0.066c0.053-0.034,0.095-0.065,0.127-0.094
	c0.031-0.028,0.054-0.06,0.065-0.095c0.011-0.033,0.014-0.065,0.01-0.094C43.925,67.53,43.91,67.495,43.885,67.458z M45.005,68.056
	l-0.402,0.262l-0.668-0.267l-0.152,0.098l0.32,0.493l-0.328,0.213l-0.872-1.345l0.552-0.358c0.076-0.049,0.144-0.087,0.203-0.112
	c0.061-0.026,0.124-0.04,0.191-0.041s0.131,0.014,0.19,0.043s0.112,0.08,0.159,0.152c0.064,0.099,0.095,0.194,0.092,0.285
	s-0.031,0.184-0.085,0.278L45.005,68.056z M45.893,67.606l-0.787,0.418l-0.134-0.25l0.221-0.117l-0.485-0.914l-0.221,0.117
	l-0.134-0.251l0.788-0.419l0.133,0.251l-0.22,0.117l0.485,0.914l0.22-0.117L45.893,67.606z M47.183,67.025l-1.003,0.447
	l-0.651-1.464l0.357-0.159l0.526,1.181l0.645-0.287L47.183,67.025z M48.983,66.407l-0.97,0.305l-0.084-0.267l0.307-0.096
	l-0.254-0.809l-0.307,0.096l-0.078-0.25c0.048-0.014,0.091-0.03,0.132-0.05c0.042-0.02,0.074-0.041,0.099-0.064
	c0.028-0.028,0.047-0.059,0.055-0.091c0.009-0.032,0.008-0.07-0.003-0.112l0.323-0.101l0.397,1.266l0.299-0.094L48.983,66.407z
	 M50.424,65.576c0.033,0.138,0.004,0.265-0.087,0.379c-0.091,0.115-0.233,0.195-0.429,0.241c-0.109,0.026-0.205,0.037-0.289,0.032
	s-0.157-0.022-0.218-0.053c-0.061-0.028-0.109-0.068-0.147-0.117c-0.036-0.05-0.063-0.105-0.078-0.169
	c-0.019-0.079-0.014-0.153,0.016-0.224c0.029-0.071,0.092-0.142,0.188-0.213l-0.002-0.006c-0.097-0.022-0.173-0.06-0.229-0.113
	s-0.093-0.122-0.113-0.206c-0.029-0.124,0.001-0.238,0.091-0.343s0.223-0.178,0.396-0.22c0.184-0.044,0.335-0.042,0.455,0.006
	c0.121,0.046,0.196,0.129,0.225,0.248c0.018,0.074,0.012,0.146-0.018,0.214c-0.03,0.068-0.086,0.133-0.166,0.195l0.001,0.007
	c0.113,0.016,0.204,0.054,0.27,0.111C50.357,65.404,50.401,65.48,50.424,65.576L50.424,65.576z M49.841,64.953
	c-0.013-0.053-0.042-0.091-0.089-0.112c-0.046-0.022-0.101-0.026-0.165-0.011c-0.025,0.007-0.049,0.016-0.071,0.027
	s-0.043,0.026-0.062,0.043c-0.017,0.017-0.028,0.036-0.036,0.059c-0.009,0.021-0.01,0.045-0.004,0.069
	c0.01,0.041,0.029,0.071,0.057,0.089s0.069,0.032,0.125,0.043c0.021,0.004,0.049,0.009,0.084,0.013
	c0.034,0.005,0.077,0.009,0.127,0.014c0.021-0.045,0.035-0.084,0.041-0.117S49.851,64.998,49.841,64.953z M50.048,65.684
	c-0.012-0.051-0.033-0.086-0.063-0.105c-0.03-0.021-0.087-0.038-0.169-0.055c-0.024-0.005-0.06-0.01-0.104-0.016
	c-0.046-0.006-0.084-0.01-0.115-0.015c-0.021,0.034-0.04,0.073-0.054,0.118c-0.014,0.044-0.014,0.09-0.003,0.138
	c0.018,0.072,0.056,0.125,0.115,0.156s0.13,0.037,0.209,0.018c0.021-0.005,0.045-0.014,0.072-0.027s0.049-0.03,0.066-0.049
	c0.02-0.022,0.035-0.045,0.044-0.07C50.056,65.752,50.056,65.72,50.048,65.684L50.048,65.684z M51.793,64.878
	c0.022,0.132,0.026,0.258,0.014,0.378c-0.014,0.119-0.047,0.223-0.1,0.312c-0.058,0.096-0.136,0.175-0.233,0.234
	c-0.1,0.06-0.219,0.101-0.359,0.123c-0.05,0.009-0.104,0.015-0.163,0.019c-0.06,0.003-0.098,0.003-0.117,0.001l-0.051-0.311
	l0.04-0.007c0.021,0.007,0.053,0.013,0.091,0.018c0.04,0.005,0.092,0.002,0.156-0.009c0.053-0.009,0.104-0.023,0.151-0.045
	c0.048-0.022,0.087-0.052,0.119-0.088c0.034-0.039,0.06-0.083,0.078-0.136c0.018-0.052,0.025-0.112,0.022-0.181
	c-0.053,0.044-0.103,0.081-0.149,0.108c-0.047,0.026-0.107,0.046-0.183,0.059c-0.055,0.01-0.11,0.012-0.166,0.006
	c-0.054-0.007-0.104-0.021-0.151-0.045c-0.063-0.032-0.116-0.08-0.161-0.143s-0.075-0.146-0.093-0.251
	c-0.028-0.169,0.005-0.315,0.099-0.44c0.095-0.126,0.232-0.203,0.415-0.233c0.093-0.016,0.178-0.017,0.254-0.002
	c0.077,0.014,0.146,0.042,0.208,0.087c0.071,0.051,0.129,0.12,0.176,0.209C51.736,64.631,51.771,64.743,51.793,64.878L51.793,64.878
	z M51.397,64.882c-0.015-0.086-0.034-0.155-0.06-0.208c-0.024-0.054-0.054-0.093-0.086-0.118c-0.023-0.02-0.049-0.032-0.076-0.038
	s-0.055-0.006-0.083-0.002c-0.025,0.005-0.051,0.014-0.073,0.027c-0.021,0.014-0.042,0.034-0.061,0.061
	c-0.017,0.026-0.029,0.059-0.036,0.099c-0.007,0.038-0.006,0.084,0.003,0.134c0.008,0.05,0.021,0.09,0.041,0.122
	c0.021,0.031,0.044,0.055,0.072,0.07c0.026,0.015,0.057,0.024,0.089,0.026c0.034,0.002,0.069,0,0.107-0.006
	c0.03-0.005,0.063-0.015,0.097-0.027c0.034-0.015,0.061-0.028,0.078-0.04c-0.001-0.008-0.003-0.019-0.004-0.033
	S51.401,64.911,51.397,64.882z M53.467,65.645l-1.191,0.092l-0.021-0.264c0.086-0.077,0.171-0.158,0.256-0.243
	c0.086-0.085,0.154-0.158,0.205-0.218c0.075-0.091,0.129-0.168,0.158-0.233c0.03-0.064,0.042-0.128,0.038-0.188
	c-0.006-0.073-0.032-0.128-0.081-0.163c-0.047-0.037-0.112-0.052-0.196-0.046c-0.063,0.005-0.127,0.024-0.194,0.057
	c-0.066,0.032-0.128,0.071-0.184,0.118l-0.032,0.003l-0.027-0.355c0.046-0.025,0.115-0.053,0.208-0.083
	c0.093-0.028,0.186-0.048,0.28-0.055c0.19-0.015,0.339,0.017,0.445,0.093s0.165,0.191,0.178,0.345
	c0.007,0.102-0.01,0.199-0.051,0.293c-0.04,0.095-0.106,0.194-0.197,0.299c-0.058,0.064-0.115,0.125-0.174,0.181
	c-0.059,0.055-0.1,0.094-0.125,0.115l0.682-0.053L53.467,65.645z M54.111,62.548l-0.342-0.436l0.241-0.372l-0.477-0.605
	l-0.418,0.146l-0.334-0.424l2.106-0.68l0.381,0.483L54.111,62.548z M54.229,61.403l0.428-0.661l-0.743,0.26L54.229,61.403z
	 M51.944,60.216c-0.122-0.095-0.221-0.2-0.297-0.316c-0.075-0.116-0.122-0.238-0.141-0.367c-0.019-0.128-0.007-0.263,0.034-0.4
	c0.043-0.138,0.117-0.277,0.226-0.417c0.102-0.129,0.212-0.232,0.333-0.308s0.248-0.122,0.381-0.141
	c0.128-0.017,0.26-0.005,0.396,0.037c0.137,0.042,0.267,0.112,0.392,0.209c0.069,0.054,0.128,0.105,0.177,0.157
	c0.05,0.05,0.095,0.1,0.132,0.149c0.038,0.052,0.07,0.102,0.097,0.15c0.026,0.048,0.05,0.092,0.068,0.13l-0.309,0.397l-0.049-0.038
	c-0.007-0.034-0.017-0.075-0.029-0.123c-0.012-0.049-0.028-0.1-0.05-0.154c-0.022-0.055-0.051-0.108-0.085-0.161
	s-0.079-0.1-0.132-0.141c-0.06-0.047-0.124-0.081-0.192-0.104c-0.067-0.023-0.142-0.031-0.221-0.023
	c-0.075,0.009-0.154,0.037-0.234,0.085s-0.158,0.121-0.235,0.22c-0.079,0.103-0.132,0.2-0.157,0.292
	c-0.023,0.091-0.029,0.174-0.016,0.248c0.014,0.075,0.041,0.143,0.082,0.204c0.042,0.059,0.09,0.109,0.144,0.151
	c0.052,0.04,0.109,0.071,0.17,0.095c0.063,0.023,0.126,0.039,0.188,0.046c0.053,0.007,0.104,0.01,0.153,0.009
	c0.05,0,0.092-0.001,0.124-0.003l0.045,0.033l-0.305,0.393c-0.056-0.013-0.108-0.026-0.158-0.039s-0.1-0.03-0.15-0.05
	c-0.065-0.026-0.124-0.054-0.178-0.082S52.026,60.279,51.944,60.216L51.944,60.216z M50.789,59.363l-1.086-0.549l0.166-0.329
	l0.304,0.154l0.604-1.196l-0.303-0.153l0.166-0.329l1.085,0.549l-0.167,0.328l-0.303-0.152l-0.604,1.195l0.303,0.153L50.789,59.363z
	 M49.291,58.58l-1.447-0.383l0.53-2.007l0.518,0.137l-0.429,1.619l0.931,0.245L49.291,58.58z M47.312,57.404
	c-0.004,0.1-0.026,0.188-0.07,0.267c-0.043,0.077-0.1,0.142-0.172,0.191c-0.084,0.059-0.175,0.1-0.274,0.122
	c-0.099,0.023-0.223,0.032-0.373,0.027l-0.906-0.029l0.065-2.075l0.807,0.025c0.166,0.006,0.289,0.015,0.365,0.028
	c0.078,0.015,0.154,0.041,0.229,0.081c0.077,0.044,0.134,0.099,0.17,0.168c0.037,0.068,0.055,0.146,0.052,0.231
	c-0.004,0.101-0.033,0.188-0.088,0.264c-0.056,0.075-0.132,0.132-0.23,0.172v0.011c0.135,0.031,0.24,0.091,0.316,0.178
	C47.28,57.152,47.317,57.265,47.312,57.404z M46.654,56.529c0.001-0.035-0.007-0.069-0.023-0.104
	c-0.016-0.035-0.045-0.061-0.089-0.079c-0.038-0.017-0.087-0.025-0.146-0.029c-0.058-0.003-0.139-0.006-0.243-0.01l-0.051-0.002
	l-0.014,0.439l0.083,0.003c0.085,0.003,0.157,0.003,0.217,0.003c0.06-0.002,0.106-0.01,0.142-0.023
	c0.049-0.021,0.081-0.047,0.098-0.08C46.643,56.612,46.652,56.573,46.654,56.529z M46.758,57.378
	c0.002-0.066-0.009-0.117-0.034-0.153c-0.024-0.037-0.066-0.065-0.127-0.085c-0.042-0.014-0.099-0.021-0.173-0.024
	c-0.072-0.004-0.149-0.007-0.229-0.009l-0.117-0.004l-0.017,0.517l0.039,0.001c0.151,0.005,0.259,0.008,0.323,0.01
	c0.065,0.001,0.126-0.01,0.182-0.031s0.095-0.051,0.117-0.089S46.757,57.427,46.758,57.378L46.758,57.378z M44.685,57.277
	c0.054,0.252,0.02,0.46-0.104,0.627c-0.124,0.166-0.334,0.282-0.632,0.346c-0.297,0.064-0.536,0.046-0.718-0.055
	c-0.181-0.102-0.298-0.276-0.352-0.526l-0.28-1.296l0.526-0.114l0.273,1.267c0.03,0.141,0.083,0.239,0.156,0.296
	c0.074,0.057,0.178,0.07,0.311,0.041c0.131-0.027,0.219-0.081,0.265-0.161c0.047-0.079,0.054-0.192,0.022-0.339l-0.273-1.266
	l0.526-0.113L44.685,57.277z M41.914,57.28c0.041,0.083,0.066,0.172,0.077,0.267c0.009,0.094,0,0.181-0.027,0.262
	c-0.038,0.11-0.094,0.206-0.167,0.288c-0.072,0.083-0.177,0.157-0.313,0.225l-0.299,0.146l0.299,0.607l-0.48,0.236l-0.916-1.863
	l0.79-0.39c0.119-0.058,0.224-0.097,0.315-0.115c0.091-0.021,0.178-0.025,0.261-0.015c0.1,0.012,0.188,0.047,0.265,0.104
	C41.796,57.09,41.861,57.173,41.914,57.28z M41.423,57.535c-0.026-0.053-0.063-0.091-0.109-0.114
	c-0.047-0.024-0.093-0.035-0.138-0.031c-0.061,0.004-0.114,0.018-0.163,0.039c-0.049,0.021-0.113,0.051-0.191,0.09l-0.083,0.041
	l0.274,0.558l0.138-0.067c0.082-0.04,0.146-0.078,0.194-0.114s0.083-0.078,0.104-0.125c0.019-0.043,0.024-0.085,0.021-0.129
	C41.464,57.637,41.448,57.589,41.423,57.535z M40.487,59.623l-0.401,0.352l-0.915-1.047l0.305,0.933l-0.278,0.243l-0.884-0.426
	l0.915,1.047l-0.38,0.332l-1.367-1.563l0.468-0.409l1.038,0.477l-0.335-1.091l0.468-0.409L40.487,59.623z M38.411,61.553
	l-0.835,1.248l-1.726-1.156l0.836-1.248l0.333,0.224l-0.539,0.805l0.299,0.2l0.5-0.748l0.333,0.224l-0.5,0.748l0.426,0.285
	l0.54-0.805L38.411,61.553z M35.735,63.4c-0.049-0.018-0.095-0.022-0.138-0.015c-0.042,0.007-0.082,0.031-0.119,0.073
	c-0.026,0.029-0.049,0.066-0.068,0.111c-0.02,0.044-0.041,0.096-0.063,0.156l-0.065,0.183l0.525,0.189l0.057-0.154
	c0.028-0.081,0.049-0.149,0.061-0.207c0.012-0.057,0.011-0.109-0.004-0.156c-0.015-0.044-0.036-0.08-0.063-0.107
	C35.831,63.445,35.79,63.421,35.735,63.4z M37.374,63.103l-0.223,0.615l-0.908,0.274l-0.083,0.232l0.716,0.258l-0.181,0.501
	l-1.953-0.704l0.305-0.845c0.041-0.115,0.084-0.212,0.127-0.29c0.043-0.079,0.1-0.146,0.169-0.203
	c0.07-0.058,0.148-0.096,0.233-0.113c0.085-0.019,0.181-0.009,0.285,0.029c0.145,0.051,0.25,0.127,0.316,0.228
	c0.066,0.1,0.108,0.222,0.124,0.367L37.374,63.103z M36.426,68.924l0.34,1.463l-2.022,0.47l-0.34-1.463l0.392-0.091l0.219,0.944
	l0.349-0.081l-0.203-0.877l0.392-0.091l0.203,0.877l0.5-0.117l-0.22-0.943L36.426,68.924z M35.41,71.587l0.285,0.583l1.504-0.737
	l0.235,0.481L35.93,72.65l0.284,0.583l-0.36,0.176l-0.805-1.646L35.41,71.587z M38.422,73.326c0.098,0.119,0.17,0.244,0.217,0.375
	c0.047,0.129,0.064,0.26,0.054,0.39c-0.011,0.129-0.052,0.257-0.124,0.382c-0.071,0.125-0.177,0.242-0.314,0.354
	c-0.127,0.104-0.259,0.179-0.394,0.225s-0.27,0.063-0.402,0.051c-0.129-0.012-0.254-0.054-0.377-0.126s-0.235-0.17-0.334-0.292
	c-0.056-0.068-0.101-0.132-0.138-0.192c-0.037-0.062-0.068-0.12-0.094-0.176c-0.024-0.06-0.045-0.115-0.06-0.169
	c-0.016-0.053-0.028-0.101-0.037-0.142l0.39-0.317l0.039,0.048c-0.001,0.042,0,0.085,0.001,0.127
	c0.001,0.05,0.005,0.104,0.014,0.161s0.024,0.117,0.046,0.176c0.022,0.06,0.055,0.115,0.098,0.168
	c0.047,0.059,0.102,0.106,0.163,0.145c0.061,0.037,0.131,0.062,0.209,0.071c0.076,0.01,0.159,0,0.248-0.028
	c0.089-0.029,0.183-0.083,0.279-0.162c0.101-0.081,0.174-0.164,0.219-0.247c0.045-0.084,0.068-0.163,0.072-0.238
	c0.004-0.077-0.008-0.148-0.034-0.217c-0.027-0.067-0.063-0.128-0.105-0.181c-0.041-0.051-0.089-0.094-0.144-0.131
	c-0.056-0.037-0.113-0.066-0.174-0.088c-0.05-0.018-0.098-0.032-0.146-0.043c-0.049-0.012-0.09-0.02-0.123-0.024l-0.035-0.044
	l0.386-0.313c0.051,0.026,0.1,0.052,0.145,0.074c0.046,0.025,0.091,0.052,0.136,0.083c0.058,0.04,0.109,0.08,0.155,0.12
	S38.356,73.245,38.422,73.326z M39.413,74.515l1.185,0.923l-1.276,1.638l-1.185-0.923l0.247-0.316l0.765,0.595l0.22-0.282
	l-0.71-0.553l0.247-0.316l0.71,0.552l0.315-0.404l-0.765-0.596L39.413,74.515z M41.1,77.356c-0.021,0.048-0.029,0.093-0.025,0.136
	c0.005,0.042,0.026,0.084,0.065,0.125c0.026,0.028,0.063,0.054,0.104,0.075c0.043,0.023,0.094,0.048,0.152,0.074l0.178,0.078
	l0.227-0.511l-0.15-0.067c-0.078-0.034-0.146-0.059-0.202-0.075c-0.056-0.016-0.107-0.019-0.155-0.006
	c-0.046,0.011-0.083,0.028-0.112,0.053C41.151,77.263,41.124,77.302,41.1,77.356z M40.921,75.701l0.598,0.266l0.209,0.925
	l0.226,0.101l0.31-0.696l0.486,0.217l-0.843,1.897l-0.82-0.364c-0.111-0.05-0.205-0.099-0.281-0.147
	c-0.075-0.049-0.138-0.109-0.189-0.184c-0.053-0.074-0.085-0.154-0.097-0.24c-0.012-0.087,0.004-0.181,0.049-0.282
	c0.063-0.141,0.146-0.24,0.251-0.3c0.104-0.06,0.229-0.092,0.376-0.097L40.921,75.701z M46.588,77.046l1.482-0.24l0.332,2.051
	l-1.482,0.238l-0.064-0.396l0.957-0.155l-0.058-0.354l-0.888,0.144l-0.064-0.396l0.888-0.144l-0.081-0.507l-0.957,0.154
	L46.588,77.046z M49.781,77.863c0.02,0.048,0.046,0.085,0.08,0.111c0.033,0.026,0.079,0.04,0.135,0.04
	c0.039,0,0.082-0.008,0.128-0.023c0.046-0.015,0.099-0.034,0.158-0.059l0.18-0.073l-0.212-0.518l-0.152,0.063
	c-0.079,0.032-0.144,0.063-0.193,0.093c-0.051,0.029-0.088,0.065-0.113,0.107c-0.023,0.041-0.036,0.08-0.039,0.118
	C49.749,77.762,49.759,77.808,49.781,77.863z M48.472,76.76l0.605-0.246l0.812,0.49l0.229-0.093l-0.287-0.705l0.493-0.201
	l0.783,1.923l-0.831,0.339c-0.113,0.046-0.214,0.08-0.301,0.101c-0.087,0.02-0.176,0.023-0.265,0.01
	c-0.09-0.015-0.17-0.047-0.24-0.098s-0.127-0.128-0.169-0.231c-0.059-0.142-0.072-0.271-0.042-0.388
	c0.028-0.116,0.092-0.229,0.189-0.339L48.472,76.76z M50.871,75.702l1.213-0.887l1.226,1.676l-1.213,0.887l-0.236-0.324l0.782-0.571
	l-0.212-0.29l-0.726,0.531l-0.237-0.324l0.727-0.531l-0.304-0.414l-0.782,0.572L50.871,75.702z M54.045,74.887
	c0.039,0.034,0.08,0.055,0.122,0.063c0.042,0.008,0.089,0,0.139-0.026c0.035-0.018,0.069-0.044,0.103-0.079
	c0.034-0.033,0.072-0.075,0.115-0.124l0.126-0.146l-0.423-0.366l-0.107,0.125c-0.056,0.064-0.1,0.121-0.132,0.171
	c-0.031,0.049-0.048,0.098-0.051,0.146c-0.002,0.047,0.004,0.088,0.019,0.123C53.97,74.811,54,74.849,54.045,74.887z M52.408,74.578
	l0.428-0.495l0.946,0.07l0.162-0.188l-0.576-0.498l0.348-0.403l1.571,1.357l-0.587,0.68c-0.08,0.093-0.154,0.168-0.223,0.227
	c-0.068,0.057-0.146,0.101-0.23,0.128c-0.087,0.029-0.173,0.036-0.26,0.022c-0.086-0.014-0.17-0.057-0.255-0.129
	c-0.116-0.101-0.188-0.209-0.214-0.326s-0.021-0.247,0.016-0.389L52.408,74.578z M54.065,72.549l0.678-1.34l1.853,0.938l-0.677,1.34
	l-0.358-0.181l0.438-0.865l-0.32-0.162l-0.406,0.803L54.913,72.9l0.406-0.804l-0.458-0.23l-0.438,0.864L54.065,72.549z
	 M55.108,70.645c-0.014-0.1-0.02-0.229-0.018-0.386s0.021-0.311,0.059-0.458c0.084-0.343,0.243-0.589,0.477-0.737
	c0.234-0.148,0.517-0.182,0.845-0.101c0.313,0.077,0.542,0.237,0.685,0.48c0.145,0.243,0.173,0.54,0.087,0.89
	c-0.032,0.133-0.076,0.257-0.13,0.37c-0.053,0.114-0.134,0.235-0.241,0.366l-0.473-0.116l0.016-0.059
	c0.024-0.021,0.061-0.051,0.106-0.091c0.048-0.041,0.089-0.08,0.124-0.119c0.042-0.046,0.082-0.101,0.12-0.166
	c0.038-0.064,0.066-0.136,0.086-0.215c0.022-0.092,0.029-0.179,0.021-0.26c-0.009-0.082-0.034-0.159-0.075-0.232
	c-0.04-0.07-0.098-0.133-0.174-0.187c-0.074-0.054-0.167-0.093-0.276-0.12c-0.223-0.055-0.408-0.037-0.556,0.052
	s-0.249,0.249-0.306,0.48c-0.005,0.021-0.01,0.043-0.015,0.065s-0.009,0.045-0.013,0.067l0.396,0.097l0.099-0.402l0.381,0.094
	l-0.229,0.931L55.108,70.645z M55.185,65.013l-0.201-0.493l1.287-0.524l-0.98-0.017l-0.14-0.342l0.69-0.697l-1.288,0.525
	l-0.19-0.468l1.923-0.784l0.234,0.576l-0.788,0.826l1.141,0.038l0.234,0.576L55.185,65.013"/>
<path fill="#009748" d="M24.717,21.487c-2.009,2.344-3.789,5.02-5.279,7.938l1.63-5.947c0.022-0.083-0.02-0.17-0.098-0.205
	l-1.512-0.674c-0.082-0.036-0.178-0.005-0.223,0.074l-4.125,7.319c-0.043,0.078-0.021,0.177,0.053,0.228
	c0.073,0.053,0.174,0.039,0.232-0.029c0,0,2.935-3.427,3.51-4.097l-0.401,5.271c-0.23,0.513-0.452,1.03-0.665,1.552
	c-1.262,3.104-2.209,6.421-2.819,9.844l-0.111-6.422c-0.001-0.086-0.065-0.157-0.15-0.169l-1.641-0.223
	c-0.089-0.012-0.172,0.046-0.192,0.134l-1.901,8.184c-0.021,0.088,0.029,0.176,0.113,0.205c0.085,0.028,0.179-0.012,0.215-0.094
	c0,0,1.854-4.113,2.217-4.919l1.131,5.332c-0.327,2.376-0.494,4.792-0.494,7.213c0,1.324,0.047,2.637,0.142,3.936l-1.677-6.141
	c-0.022-0.084-0.103-0.138-0.188-0.127l-1.645,0.188c-0.089,0.011-0.156,0.087-0.154,0.178l0.176,8.399
	c0.002,0.09,0.071,0.163,0.161,0.17s0.17-0.056,0.185-0.144c0,0,0.782-4.444,0.936-5.313l2.398,4.861
	c0.436,3.857,1.293,7.59,2.568,11.159l-3.237-5.413c-0.044-0.074-0.136-0.104-0.215-0.072l-1.532,0.625
	c-0.084,0.034-0.128,0.126-0.102,0.212l2.429,8.043c0.026,0.086,0.113,0.139,0.201,0.121c0.082-0.017,0.14-0.089,0.14-0.171
	c0-0.006,0-0.012,0-0.018c0,0-0.442-4.49-0.528-5.369l3.6,4.019c1.44,3.521,3.288,6.782,5.453,9.635l-4.647-3.996
	c-0.065-0.056-0.162-0.056-0.228,0l-1.256,1.077c-0.068,0.06-0.081,0.16-0.028,0.233l4.848,6.861
	c0.052,0.074,0.15,0.097,0.229,0.052c0.057-0.032,0.088-0.091,0.088-0.151c0-0.025-0.005-0.05-0.015-0.072c0,0-1.841-4.12-2.2-4.926
	l4.563,2.603c0.62,0.728,1.263,1.424,1.926,2.084c0.353,0.352,0.924,0.351,1.275-0.003c0.352-0.353,0.351-0.923-0.002-1.274
	c-0.696-0.693-1.368-1.427-2.016-2.198l-0.399-4.284c0.587,0.68,3.506,4.061,3.506,4.061c0.059,0.068,0.159,0.08,0.233,0.028
	c0.073-0.053,0.095-0.152,0.049-0.23l-4.249-7.269c-0.044-0.074-0.135-0.106-0.215-0.074l-1.549,0.611
	c-0.085,0.033-0.129,0.126-0.103,0.213l1.773,5.758c-2.248-2.922-4.149-6.307-5.592-9.981l0.861-4.499
	c0.381,0.789,2.386,4.937,2.386,4.937c0.039,0.082,0.133,0.119,0.218,0.089c0.084-0.031,0.131-0.121,0.108-0.208l-2.138-8.145
	c-0.021-0.083-0.101-0.139-0.187-0.13L18.9,62.117c-0.089,0.009-0.156,0.085-0.156,0.175l0.051,6.24
	c-1.271-3.568-2.112-7.309-2.513-11.18l2.022-4.233c0.169,0.86,1.056,5.381,1.056,5.381c0.017,0.088,0.099,0.148,0.188,0.14
	c0.089-0.008,0.158-0.083,0.157-0.173l0.001-8.42c0-0.087-0.063-0.16-0.148-0.173l-1.645-0.255c-0.089-0.014-0.174,0.043-0.195,0.13
	l-1.563,6.161c-0.097-1.29-0.146-2.593-0.146-3.908c0-2.512,0.186-4.994,0.544-7.418l2.942-3.602
	c-0.04,0.876-0.251,5.478-0.251,5.478c0,0.003,0,0.005,0,0.008c0,0.087,0.063,0.16,0.149,0.173c0.089,0.013,0.174-0.044,0.194-0.132
	l1.997-8.18c0.021-0.083-0.023-0.169-0.103-0.202l-1.538-0.637c-0.083-0.035-0.179,0-0.221,0.079l-2.926,5.513
	c0.726-4.05,1.938-7.916,3.579-11.452l3.875-2.488c-0.31,0.82-1.937,5.131-1.937,5.131c-0.007,0.02-0.011,0.041-0.011,0.062
	c0,0.064,0.036,0.126,0.098,0.156c0.08,0.04,0.178,0.012,0.225-0.064l4.435-7.158c0.045-0.073,0.03-0.168-0.036-0.225l-1.265-1.082
	c-0.067-0.059-0.169-0.056-0.234,0.007l-4.52,4.363c1.433-2.832,3.15-5.433,5.12-7.721l6.402-5.496
	c0.034-0.029,0.04-0.08,0.014-0.116c-0.025-0.037-0.075-0.048-0.113-0.025c0,0-1.895,1.08-3.35,1.909l4.213-5.405
	c0.028-0.036,0.024-0.088-0.01-0.118s-0.086-0.03-0.119,0.001l-4.926,4.695c0.672-1.52,1.53-3.462,1.53-3.462
	c0.019-0.041,0.002-0.089-0.037-0.11c-0.038-0.022-0.088-0.012-0.114,0.024l-4.91,6.972L24.717,21.487z M63.374,82.973
	c0.313-0.287,0.76-0.337,1.12-0.161c-0.74-0.659-1.264-1.609-1.405-2.712c-0.159-1.249,0.206-2.434,0.911-3.294
	c0.889,0.649,1.533,1.688,1.701,2.918c0.082-0.134,0.172-0.264,0.269-0.388c0.624-0.807,1.46-1.34,2.344-1.571
	c-0.188-0.304-0.207-0.698-0.018-1.029c0.168-0.296,0.464-0.473,0.779-0.503c-0.049-0.104-0.08-0.215-0.091-0.329
	c-0.286,0.134-0.631,0.131-0.926-0.038c-0.482-0.276-0.65-0.891-0.374-1.374c0.276-0.482,0.891-0.649,1.373-0.374
	c0.295,0.169,0.472,0.463,0.503,0.777c0.1-0.047,0.207-0.077,0.316-0.09c-0.127-0.283-0.121-0.622,0.045-0.913
	c0.202-0.353,0.586-0.538,0.967-0.502c-0.864-0.433-1.605-1.186-2.037-2.179c-0.501-1.154-0.481-2.394-0.045-3.417
	c1.035,0.376,1.943,1.192,2.447,2.327c0.043-0.151,0.093-0.302,0.151-0.448c0.39-0.991,1.088-1.761,1.92-2.226
	c-0.323-0.237-0.484-0.657-0.376-1.067c0.087-0.329,0.328-0.576,0.624-0.687c-0.073-0.088-0.132-0.188-0.172-0.295
	c-0.242,0.203-0.576,0.288-0.904,0.201c-0.537-0.143-0.857-0.693-0.715-1.231c0.143-0.537,0.693-0.856,1.231-0.714
	c0.327,0.087,0.574,0.325,0.685,0.621c0.085-0.071,0.181-0.128,0.284-0.168c-0.196-0.241-0.278-0.569-0.192-0.894
	c0.114-0.432,0.493-0.723,0.916-0.746c-0.976-0.197-1.91-0.759-2.588-1.646c-0.764-1-1.041-2.207-0.862-3.307
	c1.094,0.117,2.172,0.693,2.934,1.673c0.005-0.155,0.018-0.313,0.039-0.47c0.139-1.033,0.612-1.931,1.283-2.578
	c-0.324-0.172-0.542-0.518-0.533-0.911c0.007-0.34,0.183-0.637,0.445-0.813c-0.093-0.068-0.173-0.151-0.236-0.246
	c-0.188,0.254-0.492,0.415-0.833,0.408c-0.555-0.013-0.995-0.474-0.983-1.029c0.013-0.556,0.474-0.996,1.029-0.983
	c0.339,0.007,0.636,0.182,0.812,0.442c0.066-0.088,0.146-0.166,0.236-0.229c-0.247-0.188-0.404-0.489-0.396-0.824
	c0.01-0.433,0.291-0.796,0.678-0.929c-0.978,0.013-1.992-0.325-2.835-1.025c-0.969-0.805-1.51-1.919-1.581-3.03
	c1.092-0.131,2.271,0.188,3.233,0.974c-0.03-0.153-0.053-0.309-0.067-0.467c-0.095-1.016,0.153-1.976,0.642-2.749
	c-0.354-0.1-0.641-0.392-0.715-0.777c-0.064-0.334,0.043-0.661,0.263-0.889c-0.104-0.048-0.2-0.112-0.283-0.191
	c-0.13,0.288-0.393,0.511-0.727,0.575c-0.545,0.105-1.073-0.252-1.18-0.798c-0.105-0.546,0.252-1.073,0.798-1.179
	c0.333-0.064,0.659,0.044,0.887,0.261c0.046-0.101,0.107-0.193,0.183-0.274c-0.281-0.131-0.499-0.392-0.563-0.721
	c-0.072-0.377,0.076-0.745,0.354-0.972c-0.93,0.205-1.962,0.094-2.912-0.387c-1.124-0.568-1.9-1.534-2.217-2.601
	c1.035-0.371,2.257-0.323,3.369,0.228c-0.064-0.144-0.121-0.29-0.17-0.439c-0.338-1.028-0.286-2.082,0.071-2.979
	c-0.413,0.042-0.825-0.177-1.013-0.574c-0.144-0.308-0.119-0.651,0.037-0.927c-0.112-0.02-0.221-0.059-0.321-0.115
	c-0.055,0.311-0.256,0.591-0.563,0.735c-0.503,0.236-1.102,0.02-1.339-0.483c-0.235-0.503-0.02-1.103,0.483-1.339
	c0.307-0.145,0.65-0.119,0.924,0.035c0.02-0.108,0.058-0.213,0.111-0.31c-0.307-0.06-0.581-0.259-0.723-0.562
	c-0.182-0.389-0.095-0.835,0.187-1.126c-0.839,0.466-1.871,0.652-2.929,0.454c-1.237-0.232-2.252-0.943-2.854-1.88
	c0.891-0.646,2.077-0.939,3.299-0.721c-0.102-0.12-0.196-0.245-0.285-0.375c-0.603-0.882-0.849-1.893-0.766-2.844
	c-0.376,0.139-0.815,0.043-1.1-0.274c-0.227-0.254-0.301-0.59-0.229-0.898c-0.113,0.014-0.229,0.007-0.341-0.018
	c0.036,0.313-0.076,0.639-0.329,0.865c-0.415,0.37-1.052,0.334-1.422-0.081c-0.37-0.414-0.334-1.051,0.081-1.421
	c0.253-0.226,0.588-0.3,0.896-0.229c-0.013-0.11-0.007-0.222,0.017-0.329c-0.31,0.031-0.63-0.082-0.853-0.332
	s-0.298-0.58-0.232-0.884c-0.648,0.68-1.553,1.158-2.594,1.297c-1.247,0.166-2.435-0.193-3.298-0.895
	c0.645-0.892,1.68-1.541,2.908-1.715c-0.134-0.082-0.264-0.171-0.388-0.267c-1-0.766-1.585-1.858-1.7-2.965
	c1.097-0.176,2.302,0.104,3.3,0.867c0.128,0.098,0.249,0.201,0.363,0.31c-0.146-1.226,0.212-2.388,0.902-3.237
	c0.899,0.651,1.554,1.701,1.72,2.946c0.145,1.09-0.111,2.133-0.645,2.955c0.391-0.177,0.865-0.09,1.165,0.247
	c0.224,0.25,0.299,0.58,0.232,0.885c0.104-0.012,0.208-0.006,0.31,0.017c-0.028-0.308,0.085-0.623,0.332-0.845
	c0.415-0.37,1.051-0.334,1.422,0.081c0.37,0.414,0.334,1.051-0.081,1.421c-0.248,0.222-0.576,0.298-0.879,0.234
	c0.01,0.107,0.003,0.216-0.021,0.32c0.314-0.035,0.64,0.076,0.866,0.33c0.305,0.342,0.334,0.834,0.103,1.203
	c0.94,0.258,1.819,0.86,2.436,1.763c0.091,0.133,0.174,0.269,0.249,0.407c0.243-1.21,0.946-2.202,1.868-2.794
	c0.651,0.9,0.945,2.102,0.713,3.337c-0.225,1.198-0.899,2.187-1.792,2.795c0.468-0.136,0.979,0.085,1.191,0.539
	c0.143,0.304,0.121,0.642-0.029,0.914c0.102,0.02,0.2,0.055,0.291,0.104c0.062-0.302,0.259-0.572,0.561-0.714
	c0.503-0.236,1.102-0.019,1.338,0.483c0.236,0.504,0.021,1.103-0.483,1.34c-0.301,0.141-0.638,0.119-0.908-0.028
	c-0.022,0.106-0.06,0.208-0.113,0.302c0.312,0.056,0.592,0.256,0.736,0.564c0.196,0.419,0.079,0.904-0.256,1.19
	c0.845,0.508,1.533,1.34,1.879,2.39c0.051,0.153,0.092,0.308,0.125,0.461c0.571-1.094,1.523-1.85,2.573-2.161
	c0.375,1.046,0.321,2.281-0.245,3.402c-0.511,1.009-1.342,1.738-2.279,2.106c0.425,0.048,0.788,0.366,0.874,0.809
	c0.063,0.329-0.042,0.651-0.254,0.879c0.094,0.044,0.181,0.103,0.258,0.173c0.133-0.278,0.392-0.492,0.717-0.555
	c0.546-0.105,1.074,0.251,1.18,0.797s-0.252,1.074-0.797,1.18c-0.327,0.063-0.647-0.039-0.875-0.249
	c-0.047,0.097-0.108,0.187-0.184,0.265c0.288,0.129,0.512,0.393,0.576,0.727c0.08,0.418-0.109,0.824-0.448,1.04
	c0.642,0.673,1.075,1.587,1.171,2.62c0.015,0.158,0.021,0.317,0.02,0.477c0.801-0.938,1.897-1.464,2.99-1.534
	c0.133,1.104-0.194,2.296-0.998,3.264c-0.755,0.91-1.785,1.442-2.828,1.563c0.453,0.106,0.786,0.519,0.775,1.003
	c-0.008,0.334-0.178,0.627-0.434,0.805c0.083,0.063,0.155,0.139,0.215,0.224c0.188-0.244,0.486-0.398,0.818-0.391
	c0.556,0.012,0.996,0.473,0.983,1.028c-0.012,0.556-0.472,0.996-1.028,0.983c-0.332-0.007-0.624-0.175-0.802-0.428
	c-0.066,0.085-0.146,0.159-0.235,0.219c0.254,0.189,0.417,0.493,0.409,0.833c-0.011,0.449-0.313,0.822-0.722,0.943
	c0.487,0.805,0.714,1.805,0.573,2.847c-0.021,0.16-0.051,0.316-0.087,0.47c0.99-0.736,2.176-1.002,3.257-0.826
	c-0.117,1.105-0.704,2.194-1.702,2.957c-0.952,0.727-2.092,1.014-3.146,0.885c0.448,0.195,0.7,0.694,0.57,1.182
	c-0.086,0.324-0.32,0.568-0.61,0.681c0.065,0.081,0.118,0.171,0.156,0.268c0.241-0.192,0.566-0.272,0.888-0.188
	c0.537,0.143,0.857,0.694,0.715,1.231s-0.694,0.857-1.23,0.715c-0.322-0.086-0.566-0.317-0.68-0.604
	c-0.084,0.066-0.179,0.12-0.279,0.158c0.202,0.242,0.288,0.576,0.201,0.904c-0.116,0.439-0.507,0.734-0.939,0.748
	c0.311,0.92,0.303,1.981-0.096,2.993c-0.059,0.148-0.124,0.293-0.197,0.435c1.138-0.477,2.354-0.451,3.359-0.021
	c-0.379,1.044-1.209,1.962-2.361,2.462c-1.069,0.466-2.213,0.482-3.189,0.134c0.343,0.311,0.437,0.827,0.197,1.245
	c-0.166,0.291-0.456,0.467-0.765,0.501c0.042,0.095,0.07,0.195,0.082,0.298c0.282-0.123,0.617-0.116,0.905,0.048
	c0.483,0.276,0.65,0.892,0.375,1.373c-0.276,0.483-0.892,0.65-1.374,0.375c-0.289-0.166-0.465-0.452-0.5-0.76
	c-0.1,0.044-0.204,0.071-0.312,0.081c0.134,0.287,0.131,0.632-0.038,0.927c-0.217,0.38-0.646,0.564-1.053,0.491
	c0.011,0.932-0.295,1.897-0.932,2.721c-0.097,0.126-0.2,0.247-0.311,0.361c1.227-0.14,2.386,0.225,3.232,0.919
	c-0.655,0.897-1.708,1.546-2.955,1.705c-1.184,0.151-2.309-0.169-3.156-0.803c0.295,0.408,0.243,0.982-0.139,1.33
	c-0.247,0.226-0.576,0.306-0.881,0.242c0.011,0.104,0.007,0.208-0.014,0.311c0.307-0.032,0.624,0.076,0.849,0.322
	c0.374,0.41,0.346,1.047-0.065,1.422c-0.41,0.375-1.047,0.346-1.422-0.065c-0.224-0.245-0.304-0.572-0.243-0.875
	c-0.107,0.011-0.216,0.005-0.321-0.019c0.039,0.313-0.069,0.642-0.32,0.871c-0.41,0.374-1.047,0.346-1.422-0.065
	c-0.375-0.41-0.346-1.047,0.064-1.422c0.251-0.229,0.587-0.308,0.896-0.24c-0.014-0.113-0.009-0.229,0.016-0.341
	c-0.313,0.04-0.641-0.068-0.87-0.319c-0.374-0.411-0.346-1.047,0.064-1.422s1.047-0.346,1.422,0.064
	c0.229,0.25,0.308,0.585,0.24,0.893c0.11-0.014,0.222-0.01,0.33,0.013C63.017,83.519,63.126,83.199,63.374,82.973"/>
<path fill="#B49B1E" d="M69.834,86.096c-2.611,1.617-5.691,2.552-8.989,2.552c-3.3,0-6.383-0.936-8.995-2.556l-1.988,3.22
	l-5.756-3.565c0,0-1.061,1.718-2.013,3.255c-3.356-1.854-7.215-2.909-11.32-2.909c-4.525,0-8.752,1.282-12.335,3.503
	c0,0,2.557,4.141,3.34,5.409c2.613-1.62,5.694-2.557,8.995-2.557c3.298,0,6.378,0.935,8.989,2.553l1.999-3.229l5.69,3.521
	c0.336-0.54,1.251-1.966,2.052-3.21c3.361,1.857,7.228,2.894,11.342,2.894c4.525,0,8.752-1.254,12.335-3.475
	C73.179,91.502,70.477,87.135,69.834,86.096z M49.624,18.48l-3.742-2.648l-3.742,2.648l1.362-4.377l-3.675-2.741l4.584-0.057
	l1.471-4.342l1.471,4.342l4.584,0.057l-3.676,2.741L49.624,18.48z M45.867,19.208c-13.34,0-24.193,14.712-24.193,32.794
	c0,18.083,10.854,32.795,24.193,32.795c13.341,0,24.193-14.712,24.193-32.795C70.06,33.92,59.208,19.208,45.867,19.208
	L45.867,19.208z M45.867,83.126c-12.434,0-22.549-13.962-22.549-31.124c0-17.161,10.115-31.124,22.549-31.124
	s22.549,13.963,22.549,31.124C68.416,69.164,58.301,83.126,45.867,83.126"/>
<path fill="#FFFFFF" d="M52.686,89.093l0.249,0.114c0.336,0.152,0.165,0.526-0.028,0.95c-0.264,0.578-0.422,0.772-0.715,0.638
	l-0.233-0.106L52.686,89.093z M51.315,90.823l0.785,0.358c0.823,0.375,1.14-0.46,1.301-0.814c0.327-0.718,0.401-1.193-0.23-1.481
	l-0.805-0.367L51.315,90.823z M54.93,92.23l0.117-0.371l-0.839-0.265l0.223-0.706l0.749,0.236l0.117-0.371l-0.749-0.237l0.188-0.595
	l0.813,0.257l0.117-0.372l-1.317-0.416l-0.763,2.415L54.93,92.23z M57.715,90.266l-0.309,1.954
	c-0.018,0.107-0.118,0.201-0.235,0.184c-0.273-0.044-0.182-0.335-0.149-0.536l-0.534-0.085c-0.09,0.569-0.106,0.879,0.624,0.995
	c0.371,0.058,0.754-0.073,0.823-0.51l0.304-1.919L57.715,90.266z M58.73,92.959l0.183-0.55l0.721,0.051l0.101,0.569l0.557,0.039
	l-0.509-2.574l-0.696-0.049l-0.877,2.478L58.73,92.959z M59.549,92.063l-0.504-0.035l0.317-1.075l0.008,0.001L59.549,92.063z
	 M61.358,93.036l-0.083-1.851h0.007l0.773,1.818l0.697-0.031l-0.114-2.529l-0.493,0.021l0.079,1.753h-0.008l-0.752-1.722
	l-0.715,0.032l0.114,2.529L61.358,93.036z M64.892,92.676l-0.061-0.384l-0.869,0.137l-0.116-0.73l0.777-0.122l-0.062-0.385
	l-0.775,0.122l-0.098-0.617l0.842-0.133l-0.061-0.385l-1.364,0.215l0.394,2.503L64.892,92.676z M65.882,92.47l-0.527-2.477
	l-0.518,0.11l0.527,2.477L65.882,92.47z M66.41,90.092l0.226-0.067c0.161-0.048,0.285,0.01,0.354,0.241
	c0.047,0.155,0.05,0.374-0.152,0.434l-0.225,0.068L66.41,90.092z M66.725,91.14l0.131-0.039c0.39-0.117,0.436,0.136,0.523,0.425
	c0.046,0.158,0.083,0.326,0.194,0.454l0.497-0.149c-0.077-0.086-0.225-0.54-0.271-0.694c-0.131-0.438-0.469-0.365-0.583-0.346
	l-0.003-0.007c0.313-0.152,0.365-0.42,0.271-0.729c-0.124-0.413-0.411-0.568-0.758-0.464l-0.938,0.28l0.729,2.426l0.507-0.152
	L66.725,91.14z M69.306,90.995c-0.274,0.117-0.42-0.126-0.673-0.724c-0.254-0.598-0.328-0.871-0.054-0.987s0.42,0.127,0.674,0.725
	C69.507,90.606,69.581,90.88,69.306,90.995z M69.455,91.344c0.804-0.342,0.552-0.936,0.293-1.546
	c-0.262-0.617-0.512-1.204-1.316-0.862c-0.804,0.341-0.554,0.929-0.292,1.545C68.398,91.092,68.651,91.685,69.455,91.344
	L69.455,91.344z M44.563,88.747l0.199,0.126c0.142,0.09,0.18,0.222,0.05,0.426c-0.087,0.137-0.25,0.282-0.428,0.17l-0.198-0.126
	L44.563,88.747z M43.977,89.672l0.116,0.072c0.344,0.219,0.183,0.42,0.021,0.675c-0.089,0.139-0.192,0.276-0.216,0.444l0.438,0.278
	c0.015-0.115,0.262-0.523,0.348-0.66c0.244-0.386-0.031-0.593-0.121-0.667l0.004-0.006c0.32,0.137,0.556,0,0.729-0.272
	c0.231-0.364,0.159-0.684-0.146-0.877l-0.826-0.524l-1.356,2.139l0.448,0.284L43.977,89.672z M45.249,91.719l1.355-2.139
	l-0.447-0.283l-1.355,2.139L45.249,91.719z M46.699,92.24c-0.252-0.16-0.135-0.418,0.214-0.966c0.347-0.548,0.529-0.765,0.781-0.604
	c0.252,0.159,0.134,0.417-0.214,0.965C47.134,92.182,46.951,92.399,46.699,92.24z M46.497,92.559
	c0.737,0.469,1.083-0.077,1.438-0.637c0.358-0.565,0.7-1.104-0.037-1.573c-0.738-0.467-1.079,0.072-1.438,0.638
	C46.104,91.547,45.759,92.093,46.497,92.559z M23.821,91.87l-0.169-0.351l-0.793,0.383l-0.321-0.667l0.707-0.341l-0.168-0.351
	l-0.708,0.341l-0.271-0.563l0.769-0.37l-0.17-0.351l-1.245,0.6l1.1,2.282L23.821,91.87z M25.511,90.581
	c-0.259-0.753-1.254-0.366-1.41-0.82c-0.057-0.166,0.009-0.289,0.171-0.345c0.202-0.069,0.295,0.103,0.356,0.281l0.487-0.167
	c-0.139-0.513-0.456-0.648-0.943-0.48c-0.61,0.21-0.688,0.57-0.558,0.945c0.245,0.713,1.263,0.393,1.41,0.823
	c0.057,0.163,0.012,0.301-0.158,0.359c-0.274,0.095-0.352-0.094-0.43-0.323l-0.501,0.172c0.116,0.424,0.358,0.749,0.979,0.535
	C25.296,91.43,25.725,91.201,25.511,90.581z M25.439,88.733l0.088,0.412l0.576-0.123l0.439,2.065l0.518-0.11l-0.439-2.064
	l0.577-0.123l-0.088-0.412L25.439,88.733z M28.125,90.788l0.076-0.574l0.718-0.086l0.205,0.541l0.554-0.066l-0.982-2.433
	l-0.692,0.082l-0.396,2.598L28.125,90.788z M28.76,89.755l-0.501,0.06l0.11-1.115l0.007-0.001L28.76,89.755z M30.552,88.451
	l0.273,0.005c0.368,0.007,0.361,0.417,0.354,0.883c-0.012,0.636-0.079,0.876-0.402,0.87l-0.255-0.004L30.552,88.451z M29.984,90.585
	l0.863,0.016c0.904,0.016,0.86-0.876,0.867-1.266c0.014-0.789-0.107-1.255-0.803-1.267l-0.883-0.016L29.984,90.585z M33.01,90.388
	c-0.296-0.042-0.295-0.325-0.204-0.968s0.168-0.915,0.463-0.873c0.295,0.041,0.295,0.324,0.204,0.967
	C33.383,90.157,33.304,90.429,33.01,90.388z M32.957,90.763c0.865,0.121,0.955-0.518,1.047-1.175
	c0.093-0.663,0.183-1.295-0.683-1.416c-0.865-0.122-0.954,0.51-1.047,1.174C32.181,90.003,32.092,90.641,32.957,90.763z
	 M36.437,89.222l0.263,0.075c0.354,0.102,0.24,0.496,0.112,0.944c-0.176,0.61-0.303,0.825-0.613,0.736l-0.246-0.07L36.437,89.222z
	 M35.337,91.136l0.83,0.238c0.869,0.249,1.058-0.624,1.165-0.998c0.218-0.759,0.221-1.24-0.447-1.432l-0.85-0.243L35.337,91.136z
	 M38.378,91.788c-0.276-0.112-0.207-0.387,0.036-0.988s0.384-0.847,0.66-0.735s0.207,0.386-0.036,0.988
	C38.796,91.654,38.654,91.899,38.378,91.788z M38.236,92.139c0.81,0.327,1.052-0.271,1.3-0.887c0.251-0.621,0.49-1.213-0.319-1.54
	c-0.811-0.327-1.05,0.265-1.301,0.886C37.668,91.213,37.426,91.811,38.236,92.139"/>
</svg>
