<svg xmlns="http://www.w3.org/2000/svg" viewBox="0 0 853.33331 102.66667" height="102.66667" width="853.33331">
  <path d="M105.6828 22.67654h27.94786v5.95733h-19.45v6.83387h18.224v5.95773h-18.224v12.52867h-8.49786zm46.26786 6.74587l-4.90533 12.39733h9.812zm7.18534 18.09213h-14.36934l-2.54133 6.4396h-9.15507l13.75507-31.2776H157.076l13.75466 31.2776H161.676zm11.13466 1.00786L190.948 28.63387h-19.27467v-5.95733h30.44533v5.43173L181.44133 47.9964h20.67733v5.95774h-31.848zm34.88-25.84586h29.21867v5.95733h-20.72134v6.48387h19.66934v5.6948h-19.66934v7.18386h20.896v5.95774h-29.39333zm59.804 0h8.236v31.2776h-9.24267l-17.04133-21.8156-.088 21.8156h-8.23467v-31.2776h9.856l16.428 21.8156zm22.044 25.31986h9.46267c2.77466 0 4.82533-.82506 6.15466-2.47506 1.328-1.65 1.99334-4.15414 1.99334-7.51254 0-3.03746-.70934-5.3588-2.12534-6.96506-1.416-1.6068-3.68666-2.40987-6.812-2.40987h-8.67333zm-8.49867-25.31986h19.49467c5.168 0 9.024 1.38707 11.564 4.16147 2.54133 2.774 3.812 6.6 3.812 11.47706 0 4.84853-1.24133 8.66667-3.724 11.45573-2.48267 2.78854-6.11867 4.18334-10.908 4.18334h-20.23867zm54.37334 6.74587l-4.90667 12.39733h9.81333zm7.184 18.09213h-14.368l-2.54134 6.4396h-9.156l13.756-31.2776h10.25067l13.75466 31.2776h-9.156zm30.27066-24.838h29.21867v5.95733h-20.72v6.48387h19.668v5.6948h-19.668v7.18386h20.896v5.95774h-29.39467zm58.78933 14.41253h9.11067c1.78133 0 3.176-.25627 4.184-.7672 1.00667-.51093 1.51067-1.6864 1.51067-3.526 0-1.81093-.43734-3.00106-1.31334-3.5704-.876-.5692-2.07333-.85466-3.592-.85466h-9.9zm-8.49866-14.41253h21.02666c4.03067 0 6.87734.9344 8.54267 2.80373 1.664 1.86867 2.496 4.10307 2.496 6.702 0 3.388-.876 6.0016-2.628 7.8412-1.752 1.84013-4.33733 2.75987-7.75333 2.75987h-13.18534v11.1708h-8.49866zm35.84266 0H464.96v25.0568h19.05466v6.2208h-27.55333zm46.268 6.74587l-4.90667 12.39733h9.81334zm7.184 18.09213h-14.368l-2.54133 6.4396h-9.156l13.756-31.2776h10.25066l13.75467 31.2776h-9.15467zm39.78533-24.838h8.236v31.2776H548.692l-17.04134-21.8156-.088 21.8156H523.328v-31.2776h9.856l16.428 21.8156zm13.54534 0h29.21866v5.95733h-20.72v6.48387H591.412v5.6948h-19.66934v7.18386h20.896v5.95774H563.244zm48.984 0h8.49866V41.776c0 2.48227-.22533 4.61414-.67867 6.39587-.452 1.7812-1.60533 3.3364-3.46 4.66507-1.85466 1.3292-4.68 1.99333-8.47733 1.99333-4.264 0-7.66533-.76627-10.20666-2.2996-2.54134-1.53333-3.81067-4.3588-3.81067-8.47707v-1.9708h8.49866v2.19014c0 1.4896.408 2.6724 1.22534 3.5484.81866.876 1.94266 1.31413 3.37333 1.31413 2.04533 0 3.39467-.5256 4.052-1.5772.65733-1.05093.98533-2.628.98533-4.7312zm29.09733 6.74587l-4.90667 12.39733h9.81333zm7.184 18.09213h-14.368l-2.54134 6.4396h-9.15466l13.75466-31.2776h10.25067l13.75467 31.2776h-9.15467zm44.47333-24.838h12.484v31.2776h-8.23467v-25.0572l-9.988 25.0572h-7.09733l-9.9-25.0572-.08667 25.0572h-8.236v-31.2776h12.484l9.28667 22.51613zm17.79467 0h29.21866v5.95733h-20.72v6.48387h19.668v5.6948h-19.668v7.18386h20.896v5.95774h-29.39466zm59.804 0h8.236v31.2776h-9.24267l-17.04134-21.8156-.088 21.8156h-8.23466v-31.2776h9.856l16.428 21.8156zm22.132 5.95733h-11.60934v-5.95733h31.716v5.95733h-11.608v25.32027h-8.49867zm40.092-6.83333c5.22666 0 9.264.8468 12.112 2.54067 2.848 1.69373 4.78266 3.7744 5.804 6.24213 1.02266 2.46773 1.53333 5.04533 1.53333 7.73173 0 2.74533-.496 5.3156-1.48934 7.70987-.99333 2.3948-2.94266 4.46106-5.848 6.19906-2.90533 1.73747-6.944 2.60627-12.112 2.60627-5.228 0-9.26533-.84693-12.11333-2.54067-2.84667-1.69373-4.78267-3.77506-5.804-6.24266-1.02133-2.4672-1.53333-5.0448-1.53333-7.73187 0-2.7448.496-5.31506 1.48933-7.70933.99333-2.39533 2.94267-4.46147 5.848-6.19893 2.90667-1.73747 6.944-2.60627 12.11333-2.60627zm0 27.0724c3.53333 0 6.15466-1.0516 7.86266-3.15414 1.708-2.1032 2.56267-4.57093 2.56267-7.40373 0-2.8036-.85467-5.264-2.56267-7.3812-1.708-2.1172-4.32933-3.176-7.86267-3.176-3.53466 0-6.15466 1.05147-7.864 3.15414-1.708 2.10253-2.56266 4.5708-2.56266 7.40306 0 2.80373.85466 5.26467 2.56266 7.38187 1.70934 2.11706 4.32934 3.176 7.864 3.176M103.78386 77.7912l2.14374-.18813c.1.86.336 1.56413.70786 2.11573.3724.55254.9484.99574 1.72814 1.3364.7796.34014 1.6604.50787 2.63586.50787.86774 0 1.63227-.12813 2.2964-.38387.664-.2604 1.15987-.612 1.48387-1.0604.32387-.4516.48747-.94013.48747-1.47186 0-.54014-.1552-1.00787-.47187-1.412-.312-.40427-.8276-.74014-1.54373-1.012-.46414-.18027-1.48027-.45987-3.05987-.84014-1.57613-.38013-2.68387-.73586-3.31627-1.07186-.81973-.42814-1.43173-.964-1.83586-1.6-.4-.636-.6-1.34787-.6-2.14014 0-.864.24426-1.67546.73586-2.4276.49227-.75626 1.212-1.32813 2.15627-1.72026.948-.388 1.99587-.58387 3.15213-.58387 1.276 0 2.39587.20413 3.37134.61613.9724.40787 1.72026 1.01147 2.24426 1.80787.51987.79627.80414 1.7.84427 2.70773l-2.18013.16414c-.1204-1.08387-.51574-1.90787-1.19227-2.46-.676-.55614-1.67187-.83227-2.9916-.83227-1.37613 0-2.37613.25213-3.0084.75627-.62813.50413-.94373 1.112-.94373 1.8204 0 .61973.224 1.1276.66826 1.52333.4396.4 1.5796.8084 3.42814 1.22453 1.84733.41974 3.1156.78387 3.8036 1.09587 1 .464 1.74013 1.04787 2.21613 1.752.476.70787.71147 1.524.71147 2.44373 0 .91614-.25987 1.77614-.78387 2.58387-.52347.8084-1.27547 1.43653-2.25573 1.88853-.98014.448-2.08387.67187-3.30774.67187-1.55626 0-2.86-.22387-3.9084-.68013-1.05213-.45214-1.876-1.13227-2.47546-2.04427-.5964-.90787-.91254-1.9396-.94014-3.08747zm24.76094 1.51147l2.18026.26867c-.34386 1.2756-.98026 2.2636-1.90786 2.96773-.93227.69947-2.12027 1.05213-3.56414 1.05213-1.82026 0-3.264-.56053-4.328-1.68026-1.06826-1.12027-1.6-2.69214-1.6-4.71614 0-2.09586.54-3.71986 1.61614-4.876 1.0796-1.15573 2.47546-1.736 4.19573-1.736 1.66413 0 3.024.56827 4.07613 1.70054 1.05574 1.13173 1.58387 2.7276 1.58387 4.77973 0 .1276-.00373.31613-.012.564h-9.28027c.076 1.36827.46414 2.4156 1.15987 3.14013.6964.7276 1.56053 1.0916 2.60053 1.0916.77187 0 1.43187-.20413 1.97974-.61186.54786-.40427.98026-1.0516 1.3-1.94427zm-6.924-3.41147h6.948c-.09174-1.04426-.36-1.8324-.79587-2.35213-.6724-.81253-1.54427-1.22027-2.612-1.22027-.96827 0-1.7844.32387-2.44427.9724-.65986.64787-1.02346 1.51614-1.09586 2.6zm19.60986 2.85987l2.072.27187c-.224 1.42813-.804 2.54786-1.74 3.35626-.932.80774-2.08 1.212-3.44 1.212-1.7 0-3.072-.55626-4.104-1.66826-1.0364-1.112-1.55613-2.70787-1.55613-4.788 0-1.34427.22347-2.51987.66773-3.5276.4484-1.0084 1.1244-1.76414 2.0364-2.26827.90667-.50413 1.9-.75627 2.968-.75627 1.352 0 2.46.34427 3.316 1.02814.86.68386 1.41067 1.65213 1.656 2.912l-2.052.3156c-.196-.83547-.54-1.4636-1.036-1.88747-.496-.41987-1.096-.63227-1.8-.63227-1.064 0-1.928.38014-2.592 1.14427-.66533.75987-.996 1.964-.996 3.61187 0 1.672.32 2.88813.964 3.648.64.75626 1.476 1.13586 2.508 1.13586.828 0 1.516-.25573 2.07067-.764.55733-.50786.90933-1.288 1.05733-2.34373zm3.58934 4.55987V70.86667h1.896v1.8844c.484-.87973.932-1.46413 1.344-1.74373.408-.28027.85866-.42454 1.352-.42454.712 0 1.43066.22814 2.16666.68027l-.72666 1.95987c-.512-.30787-1.028-.45987-1.54534-.45987-.464 0-.876.14-1.24266.4156-.36934.28013-.628.664-.78534 1.15627-.236.74786-.35066 1.56813-.35066 2.4604v6.5156zm16.26533-4.00827l2.17867.26867c-.34267 1.2756-.97867 2.2636-1.90667 2.96773-.932.69947-2.12133 1.05213-3.564 1.05213-1.82133 0-3.26533-.56053-4.328-1.68026-1.068-1.12027-1.60133-2.69214-1.60133-4.71614 0-2.09586.54133-3.71986 1.61733-4.876 1.08-1.15573 2.476-1.736 4.19467-1.736 1.66533 0 3.02533.56827 4.076 1.70054 1.05733 1.13173 1.584 2.7276 1.584 4.77973 0 .1276-.00267.31613-.01067.564h-9.28c.076 1.36827.464 2.4156 1.16 3.14013.69467.7276 1.55867 1.0916 2.6 1.0916.77067 0 1.43067-.20413 1.97867-.61186.54933-.40427.98-1.0516 1.30133-1.94427zm-6.924-3.41147h6.948c-.092-1.04426-.36-1.8324-.79733-2.35213-.672-.81253-1.54267-1.22027-2.612-1.22027-.96667 0-1.78267.32387-2.44267.9724-.66.64787-1.024 1.51614-1.096 2.6zm16.09333 5.53174l.304 1.864c-.592.124-1.124.188-1.592.188-.768 0-1.36133-.12027-1.78533-.364-.42-.24014-.71467-.55987-.88667-.95627-.17333-.3916-.26133-1.22347-.26133-2.48747v-7.1604h-1.548v-1.64013h1.548V67.7828l2.1-1.264v4.34787h2.12133v1.64013h-2.12133v7.276c0 .60414.03733.98854.10933 1.1604.076.17187.196.30787.364.412.168.09947.408.1516.72.1516.236 0 .54267-.0276.928-.08386zm9.916.352c-.784.66413-1.536 1.13186-2.256 1.40786-.724.2724-1.5.4084-2.328.4084-1.368 0-2.416-.3324-3.152-1-.732-.66826-1.09866-1.524-1.09866-2.56 0-.6124.13466-1.16813.41466-1.6724.276-.50413.64-.90773 1.088-1.21186.452-.30374.956-.536 1.52134-.69227.412-.10773 1.03466-.2156 1.87066-.3156 1.704-.20413 2.96-.44427 3.764-.72813.008-.288.012-.47187.012-.54787 0-.86-.2-1.46827-.6-1.81613-.53466-.47974-1.34-.71574-2.4-.71574-.992 0-1.724.17187-2.2.51987-.472.34787-.82.964-1.048 1.84787l-2.06-.28387c.188-.88013.496-1.59573.924-2.13587.428-.54426 1.052-.96413 1.864-1.25626.812-.29227 1.752-.44014 2.824-.44014 1.064 0 1.92534.12814 2.58934.376.66266.25214 1.15066.56414 1.46666.94387.312.38067.528.85613.656 1.4364.068.35987.104 1.00787.104 1.94373v2.812c0 1.964.04534 3.20414.136 3.72027.088.51987.268 1.01987.532 1.49587h-2.204c-.216-.436-.36-.94787-.42-1.536zm-.176-4.71187c-.768.31613-1.916.5796-3.444.8-.86666.12387-1.484.264-1.84.42027-.36.1552-.63866.38386-.832.68746-.19466.3-.296.63227-.296 1 0 .56414.216 1.03187.64134 1.40787.424.3724 1.048.5604 1.86666.5604.812 0 1.536-.176 2.168-.53227.632-.35573 1.10134-.84373 1.396-1.45986.228-.47614.34-1.18027.34-2.10787zm5.11467 6.24787V70.86667h1.89467v1.8844c.484-.87973.932-1.46413 1.344-1.74373.40933-.28027.86-.42454 1.352-.42454.712 0 1.432.22814 2.168.68027l-.728 1.95987c-.512-.30787-1.028-.45987-1.544-.45987-.464 0-.876.14-1.244.4156-.368.28013-.628.664-.784 1.15627-.236.74786-.35067 1.56813-.35067 2.4604v6.5156zm7.756-14.7516V66.1312h2.112v2.42814zm0 14.7516V70.86667h2.112v12.44427zm13.17733-1.536c-.78267.66413-1.536 1.13186-2.256 1.40786-.724.2724-1.5.4084-2.32667.4084-1.36933 0-2.41733-.3324-3.15333-1-.732-.66826-1.1-1.524-1.1-2.56 0-.6124.136-1.16813.416-1.6724.27734-.50413.64-.90773 1.088-1.21186.452-.30374.956-.536 1.52-.69227.412-.10773 1.036-.2156 1.872-.3156 1.704-.20413 2.96-.44427 3.764-.72813.008-.288.012-.47187.012-.54787 0-.86-.2-1.46827-.6-1.81613-.536-.47974-1.34-.71574-2.4-.71574-.992 0-1.724.17187-2.2.51987-.472.34787-.82.964-1.048 1.84787l-2.05866-.28387c.18666-.88013.49466-1.59573.92266-2.13587.428-.54426 1.05334-.96413 1.864-1.25626.81333-.29227 1.752-.44014 2.824-.44014 1.064 0 1.924.12814 2.58933.376.66267.25214 1.152.56414 1.46667.94387.312.38067.528.85613.656 1.4364.068.35987.104 1.00787.104 1.94373v2.812c0 1.964.044 3.20414.136 3.72027.088.51987.268 1.01987.532 1.49587h-2.204c-.216-.436-.36-.94787-.42-1.536zm-.176-4.71187c-.76667.31613-1.916.5796-3.444.8-.868.12387-1.484.264-1.83867.42027-.36133.1552-.64133.38386-.83333.68746-.196.3-.296.63227-.296 1 0 .56414.21734 1.03187.64 1.40787.424.3724 1.048.5604 1.868.5604.812 0 1.536-.176 2.168-.53227.632-.35573 1.1-.84373 1.396-1.45986.228-.47614.34-1.18027.34-2.10787zm20.144 6.24787v-1.57187c-.788 1.23587-1.948 1.85213-3.48 1.85213-.992 0-1.904-.2724-2.736-.8204-.832-.54373-1.476-1.30773-1.936-2.2916-.456-.98026-.684-2.10426-.684-3.38026 0-1.24014.20933-2.36774.62-3.38014.41733-1.01146 1.036-1.78813 1.86533-2.324.828-.54013 1.75467-.812 2.77867-.812.748 0 1.416.15987 2 .476.588.31614 1.064.72814 1.43333 1.236v-6.1636h2.09467v17.17974zm-6.668-6.212c0 1.5964.336 2.788 1.008 3.576.672.78813 1.464 1.18386 2.38 1.18386.92 0 1.704-.3796 2.348-1.13173.644-.75213.968-1.90413.968-3.45213 0-1.70414-.328-2.952-.984-3.74787-.656-.80053-1.464-1.19587-2.428-1.19587-.936 0-1.72.38387-2.348 1.148-.62667.764-.944 1.97187-.944 3.61974zm20.19333 2.20373l2.18134.26867c-.34534 1.2756-.98134 2.2636-1.90934 2.96773-.932.69947-2.12 1.05213-3.564 1.05213-1.82 0-3.26266-.56053-4.32666-1.68026-1.06934-1.12027-1.60134-2.69214-1.60134-4.71614 0-2.09586.54-3.71986 1.616-4.876 1.08-1.15573 2.476-1.736 4.196-1.736 1.66534 0 3.024.56827 4.076 1.70054 1.056 1.13173 1.584 2.7276 1.584 4.77973 0 .1276-.004.31613-.012.564h-9.28c.076 1.36827.464 2.4156 1.16 3.14013.696.7276 1.56134 1.0916 2.60134 1.0916.77066 0 1.43066-.20413 1.97866-.61186.548-.40427.98-1.0516 1.3-1.94427zm-6.924-3.41147h6.948c-.092-1.04426-.36-1.8324-.796-2.35213-.672-.81253-1.544-1.22027-2.612-1.22027-.968 0-1.784.32387-2.444.9724-.66.64787-1.024 1.51614-1.096 2.6zm18.74 7.41974V66.1312h12.42v2.0276h-10.148v5.26h9.504v2.01614h-9.504v5.84786h10.548v2.02814zm14.58134-3.71614l2.084-.32813c.116.8364.444 1.476.98 1.92453.532.44374 1.28.6676 2.244.6676.968 0 1.688-.2 2.156-.5916.46933-.3964.704-.8604.704-1.38853 0-.47973-.208-.8516-.624-1.1276-.288-.188-1.008-.424-2.156-.712-1.54267-.39213-2.61867-.72813-3.216-1.01613-.596-.28387-1.052-.67974-1.36-1.18387-.308-.50413-.464-1.05987-.464-1.66827 0-.55573.128-1.06813.384-1.54013.252-.47547.6-.8676 1.03733-1.1796.32667-.24013.77467-.448 1.33867-.61613.568-.16774 1.176-.25214 1.824-.25214.97733 0 1.832.14427 2.572.42454.74.2796 1.284.65986 1.636 1.1396.352.48373.592 1.12386.724 1.928l-2.05867.28386c-.09733-.64-.36933-1.14-.81733-1.5-.448-.35986-1.08267-.54-1.904-.54-.968 0-1.66.15987-2.072.48014-.41467.3204-.624.69586-.624 1.124 0 .276.088.52026.26.74013.172.22813.44.41187.808.564.21333.076.832.25573 1.864.536 1.492.4 2.532.72387 3.12.9796.592.25213 1.056.62453 1.392 1.1084.33733.48387.504 1.08387.504 1.80413 0 .7036-.208 1.36414-.616 1.988-.412.61987-1.00267 1.09947-1.776 1.44014-.772.3396-1.648.50786-2.624.50786-1.62 0-2.85067-.336-3.7-1.0084-.848-.67186-1.388-1.66773-1.62-2.988zm17.18133 1.82814l.304 1.864c-.592.124-1.124.188-1.592.188-.768 0-1.36-.12027-1.784-.364-.42-.24014-.716-.55987-.888-.95627-.172-.3916-.26-1.22347-.26-2.48747v-7.1604h-1.548v-1.64013h1.548V67.7828l2.1-1.264v4.34787h2.12v1.64013h-2.12v7.276c0 .60414.036.98854.108 1.1604.076.17187.196.30787.364.412.168.09947.408.1516.72.1516.236 0 .544-.0276.928-.08386zm9.91733.352c-.784.66413-1.536 1.13186-2.256 1.40786-.724.2724-1.5.4084-2.328.4084-1.368 0-2.416-.3324-3.152-1-.732-.66826-1.1-1.524-1.1-2.56 0-.6124.136-1.16813.416-1.6724.276-.50413.64-.90773 1.088-1.21186.452-.30374.956-.536 1.52-.69227.412-.10773 1.036-.2156 1.872-.3156 1.704-.20413 2.96-.44427 3.764-.72813.008-.288.012-.47187.012-.54787 0-.86-.2-1.46827-.6-1.81613-.536-.47974-1.34-.71574-2.4-.71574-.992 0-1.724.17187-2.2.51987-.472.34787-.82.964-1.048 1.84787l-2.06-.28387c.188-.88013.496-1.59573.924-2.13587.428-.54426 1.052-.96413 1.864-1.25626.812-.29227 1.752-.44014 2.824-.44014 1.064 0 1.924.12814 2.588.376.664.25214 1.152.56414 1.468.94387.312.38067.528.85613.656 1.4364.068.35987.104 1.00787.104 1.94373v2.812c0 1.964.044 3.20414.136 3.72027.088.51987.268 1.01987.532 1.49587h-2.204c-.216-.436-.36-.94787-.42-1.536zm-.176-4.71187c-.768.31613-1.916.5796-3.444.8-.868.12387-1.484.264-1.84.42027-.36.1552-.64.38386-.832.68746-.196.3-.296.63227-.296 1 0 .56414.216 1.03187.64 1.40787.424.3724 1.048.5604 1.868.5604.812 0 1.536-.176 2.168-.53227.632-.35573 1.1-.84373 1.396-1.45986.228-.47614.34-1.18027.34-2.10787zm13.20934 6.24787v-1.57187c-.788 1.23587-1.948 1.85213-3.48 1.85213-.992 0-1.904-.2724-2.736-.8204-.832-.54373-1.476-1.30773-1.936-2.2916-.456-.98026-.684-2.10426-.684-3.38026 0-1.24014.208-2.36774.62-3.38014.416-1.01146 1.036-1.78813 1.864-2.324.828-.54013 1.756-.812 2.78-.812.748 0 1.416.15987 2 .476.588.31614 1.064.72814 1.432 1.236v-6.1636h2.096v17.17974zm-6.668-6.212c0 1.5964.336 2.788 1.008 3.576.672.78813 1.464 1.18386 2.38 1.18386.92 0 1.704-.3796 2.348-1.13173.644-.75213.968-1.90413.968-3.45213 0-1.70414-.328-2.952-.984-3.74787-.656-.80053-1.464-1.19587-2.428-1.19587-.936 0-1.72.38387-2.348 1.148-.628.764-.944 1.97187-.944 3.61974zm10.88933-.012c0-2.30414.64-4.012 1.924-5.11974 1.068-.92026 2.372-1.3844 3.912-1.3844 1.712 0 3.112.55987 4.196 1.68387 1.088 1.12027 1.628 2.66827 1.628 4.64427 0 1.60413-.24 2.864-.72 3.78026-.48.91974-1.18 1.63174-2.096 2.13947-.92.5084-1.92.76053-3.008.76053-1.74 0-3.148-.55626-4.224-1.67666-1.076-1.1156-1.612-2.72334-1.612-4.8276zm2.168 0c0 1.59586.348 2.788 1.044 3.57973.696.7964 1.572 1.19213 2.624 1.19213 1.048 0 1.92-.4 2.616-1.19573.692-.79587 1.04-2.012 1.04-3.64427 0-1.5396-.348-2.70786-1.048-3.5-.7-.79226-1.568-1.1876-2.608-1.1876-1.052 0-1.928.39534-2.624 1.18334-.696.78813-1.044 1.98026-1.044 3.5724zm26.708 6.224v-1.57187c-.788 1.23587-1.948 1.85213-3.48 1.85213-.992 0-1.904-.2724-2.736-.8204-.832-.54373-1.476-1.30773-1.936-2.2916-.456-.98026-.684-2.10426-.684-3.38026 0-1.24014.208-2.36774.62-3.38014.416-1.01146 1.036-1.78813 1.864-2.324.828-.54013 1.756-.812 2.78-.812.748 0 1.416.15987 2 .476.588.31614 1.064.72814 1.432 1.236v-6.1636h2.096v17.17974zm-6.668-6.212c0 1.5964.336 2.788 1.008 3.576.672.78813 1.464 1.18386 2.38 1.18386.92 0 1.704-.3796 2.348-1.13173.644-.75213.968-1.90413.968-3.45213 0-1.70414-.328-2.952-.984-3.74787-.656-.80053-1.464-1.19587-2.428-1.19587-.936 0-1.72.38387-2.348 1.148-.628.764-.944 1.97187-.944 3.61974zm20.19333 2.20373l2.18.26867c-.344 1.2756-.98 2.2636-1.908 2.96773-.932.69947-2.12 1.05213-3.564 1.05213-1.82 0-3.264-.56053-4.328-1.68026-1.068-1.12027-1.6-2.69214-1.6-4.71614 0-2.09586.54-3.71986 1.616-4.876 1.08-1.15573 2.476-1.736 4.196-1.736 1.664 0 3.024.56827 4.076 1.70054 1.056 1.13173 1.584 2.7276 1.584 4.77973 0 .1276-.004.31613-.012.564h-9.28c.076 1.36827.464 2.4156 1.16 3.14013.696.7276 1.56 1.0916 2.6 1.0916.772 0 1.432-.20413 1.98-.61186.548-.40427.98-1.0516 1.3-1.94427zm-6.924-3.41147h6.948c-.092-1.04426-.36-1.8324-.796-2.35213-.672-.81253-1.544-1.22027-2.612-1.22027-.968 0-1.784.32387-2.444.9724-.66.64787-1.024 1.51614-1.096 2.6zm18.808 7.41974V66.1312h11.592v2.0276h-9.316v5.3204h8.06v2.0276h-8.06v7.80414zm22.12933-1.536c-.784.66413-1.536 1.13186-2.256 1.40786-.724.2724-1.5.4084-2.328.4084-1.368 0-2.416-.3324-3.152-1-.732-.66826-1.1-1.524-1.1-2.56 0-.6124.136-1.16813.416-1.6724.276-.50413.64-.90773 1.088-1.21186.452-.30374.956-.536 1.52-.69227.412-.10773 1.036-.2156 1.872-.3156 1.704-.20413 2.96-.44427 3.764-.72813.008-.288.012-.47187.012-.54787 0-.86-.2-1.46827-.6-1.81613-.536-.47974-1.34-.71574-2.4-.71574-.992 0-1.724.17187-2.2.51987-.472.34787-.82.964-1.048 1.84787l-2.06-.28387c.188-.88013.496-1.59573.924-2.13587.428-.54426 1.052-.96413 1.864-1.25626.812-.29227 1.752-.44014 2.824-.44014 1.064 0 1.924.12814 2.588.376.664.25214 1.152.56414 1.468.94387.312.38067.528.85613.656 1.4364.068.35987.104 1.00787.104 1.94373v2.812c0 1.964.044 3.20414.136 3.72027.088.51987.268 1.01987.532 1.49587h-2.204c-.216-.436-.36-.94787-.42-1.536zm-.176-4.71187c-.768.31613-1.916.5796-3.444.8-.868.12387-1.484.264-1.84.42027-.36.1552-.64.38386-.832.68746-.196.3-.296.63227-.296 1 0 .56414.216 1.03187.64 1.40787.424.3724 1.048.5604 1.868.5604.812 0 1.536-.176 2.168-.53227.632-.35573 1.1-.84373 1.396-1.45986.228-.47614.34-1.18027.34-2.10787zm4.02134 6.24787v-1.712l7.924-9.09214c-.9.04787-1.692.06814-2.38.06814h-5.076v-1.70827h10.172v1.39213l-6.736 7.9-1.3 1.44014c.944-.06827 1.832-.10414 2.66-.10414h5.752v1.81614zm21.36533-4.00827l2.18.26867c-.344 1.2756-.98 2.2636-1.908 2.96773-.932.69947-2.12 1.05213-3.564 1.05213-1.82 0-3.264-.56053-4.328-1.68026-1.068-1.12027-1.6-2.69214-1.6-4.71614 0-2.09586.54-3.71986 1.616-4.876 1.08-1.15573 2.476-1.736 4.196-1.736 1.664 0 3.024.56827 4.076 1.70054 1.056 1.13173 1.584 2.7276 1.584 4.77973 0 .1276-.004.31613-.012.564h-9.28c.076 1.36827.464 2.4156 1.15867 3.14013.69733.7276 1.56133 1.0916 2.60133 1.0916.772 0 1.432-.20413 1.98-.61186.548-.40427.98-1.0516 1.3-1.94427zm-6.924-3.41147h6.948c-.092-1.04426-.36-1.8324-.796-2.35213-.672-.81253-1.54533-1.22027-2.612-1.22027-.968 0-1.784.32387-2.444.9724-.66.64787-1.024 1.51614-1.096 2.6zm11.48933 7.41974V70.86667h1.896v1.76827c.916-1.36774 2.236-2.05214 3.96-2.05214.752 0 1.44.13654 2.068.40414.632.27186 1.1.624 1.412 1.06413.316.43587.532.95573.66 1.55627.076.3916.116 1.07546.116 2.05146v7.65214h-2.112v-7.57187c0-.85627-.08-1.5-.244-1.92813-.164-.424-.456-.764-.872-1.01614-.42-.25573-.908-.38386-1.472-.38386-.9 0-1.672.288-2.328.85573-.652.5724-.976 1.65213-.976 3.2484v6.79587zm21.15334 0v-1.57187c-.788 1.23587-1.948 1.85213-3.48 1.85213-.992 0-1.904-.2724-2.736-.8204-.832-.54373-1.476-1.30773-1.936-2.2916-.456-.98026-.684-2.10426-.684-3.38026 0-1.24014.208-2.36774.62-3.38014.416-1.01146 1.036-1.78813 1.864-2.324.828-.54013 1.756-.812 2.78-.812.748 0 1.416.15987 2 .476.588.31614 1.064.72814 1.432 1.236v-6.1636h2.09466v17.17974zm-6.668-6.212c0 1.5964.336 2.788 1.008 3.576.672.78813 1.464 1.18386 2.38 1.18386.92 0 1.704-.3796 2.34666-1.13173.64534-.75213.96934-1.90413.96934-3.45213 0-1.70414-.328-2.952-.984-3.74787-.656-.80053-1.464-1.19587-2.428-1.19587-.936 0-1.72.38387-2.348 1.148-.628.764-.944 1.97187-.944 3.61974zm19.79733 4.676c-.784.66413-1.536 1.13186-2.256 1.40786-.724.2724-1.5.4084-2.328.4084-1.36933 0-2.416-.3324-3.152-1-.732-.66826-1.1-1.524-1.1-2.56 0-.6124.136-1.16813.416-1.6724.276-.50413.64-.90773 1.088-1.21186.452-.30374.956-.536 1.52-.69227.412-.10773 1.036-.2156 1.872-.3156 1.704-.20413 2.96-.44427 3.764-.72813.008-.288.01067-.47187.01067-.54787 0-.86-.2-1.46827-.59867-1.81613-.536-.47974-1.34133-.71574-2.4-.71574-.992 0-1.724.17187-2.2.51987-.472.34787-.82.964-1.048 1.84787l-2.06-.28387c.188-.88013.496-1.59573.924-2.13587.428-.54426 1.052-.96413 1.864-1.25626.812-.29227 1.752-.44014 2.824-.44014 1.064 0 1.924.12814 2.588.376.664.25214 1.152.56414 1.468.94387.312.38067.528.85613.656 1.4364.068.35987.104 1.00787.104 1.94373v2.812c0 1.964.044 3.20414.136 3.72027.088.51987.26667 1.01987.532 1.49587h-2.204c-.216-.436-.36-.94787-.42-1.536zm-.176-4.71187c-.768.31613-1.916.5796-3.444.8-.868.12387-1.484.264-1.84.42027-.36.1552-.64.38386-.832.68746-.196.3-.296.63227-.296 1 0 .56414.216 1.03187.64 1.40787.424.3724 1.048.5604 1.868.5604.812 0 1.536-.176 2.168-.53227.632-.35573 1.1-.84373 1.396-1.45986.228-.47614.34-1.18027.34-2.10787zm20.588 2.2396l2.18.26867c-.344 1.2756-.98 2.2636-1.908 2.96773-.932.69947-2.12 1.05213-3.564 1.05213-1.82 0-3.264-.56053-4.328-1.68026-1.068-1.12027-1.6-2.69214-1.6-4.71614 0-2.09586.54-3.71986 1.616-4.876 1.08-1.15573 2.476-1.736 4.196-1.736 1.664 0 3.024.56827 4.076 1.70054 1.05466 1.13173 1.584 2.7276 1.584 4.77973 0 .1276-.004.31613-.012.564h-9.28133c.076 1.36827.46533 2.4156 1.16133 3.14013.696.7276 1.56 1.0916 2.6 1.0916.772 0 1.432-.20413 1.98-.61186.54666-.40427.98-1.0516 1.3-1.94427zm-6.924-3.41147h6.94666c-.09066-1.04426-.35866-1.8324-.79466-2.35213-.672-.81253-1.544-1.22027-2.612-1.22027-.96934 0-1.784.32387-2.444.9724-.66.64787-1.024 1.51614-1.096 2.6zm18.692 7.41974V66.1312h6.48c1.14 0 2.012.05574 2.612.1636.844.14014 1.552.40827 2.124.80414.568.39226 1.028.948 1.37466 1.65573.34934.71253.52134 1.49227.52134 2.34427 0 1.45986-.464 2.7-1.392 3.712-.932 1.00786-2.612 1.5156-5.04134 1.5156H485.212v6.9844zm2.272-9.012h4.444c1.468 0 2.512-.27187 3.128-.81974.616-.54853.92266-1.31613.92266-2.30786 0-.72027-.17866-1.3364-.54266-1.8484s-.84-.848-1.436-1.012c-.384-.1-1.088-.15214-2.12-.15214h-4.396zm13.15333 9.012V66.1312h2.108v17.17974h-2.108m13.23333-1.536c-.784.66413-1.53733 1.13186-2.256 1.40786-.724.2724-1.5.4084-2.328.4084-1.368 0-2.41733-.3324-3.152-1-.732-.66826-1.1-1.524-1.1-2.56 0-.6124.13467-1.16813.416-1.6724.276-.50413.64-.90773 1.088-1.21186.452-.30374.95467-.536 1.52-.69227.412-.10773 1.036-.2156 1.872-.3156 1.70267-.20413 2.96-.44427 3.764-.72813.008-.288.012-.47187.012-.54787 0-.86-.2-1.46827-.6-1.81613-.536-.47974-1.34-.71574-2.4-.71574-.992 0-1.72533.17187-2.2.51987-.47333.34787-.82.964-1.048 1.84787l-2.06-.28387c.188-.88013.496-1.59573.924-2.13587.428-.54426 1.052-.96413 1.864-1.25626.812-.29227 1.752-.44014 2.824-.44014 1.064 0 1.924.12814 2.588.376.664.25214 1.152.56414 1.468.94387.312.38067.528.85613.656 1.4364.068.35987.104 1.00787.104 1.94373v2.812c0 1.964.044 3.20414.136 3.72027.088.51987.268 1.01987.532 1.49587h-2.204c-.216-.436-.36-.94787-.42-1.536zm-.176-4.71187c-.768.31613-1.916.5796-3.444.8-.868.12387-1.484.264-1.84.42027-.36.1552-.64.38386-.832.68746-.196.3-.29733.63227-.29733 1 0 .56414.21733 1.03187.64133 1.40787.424.3724 1.048.5604 1.868.5604.812 0 1.536-.176 2.16667-.53227.63333-.35573 1.10133-.84373 1.39733-1.45986.228-.47614.34-1.18027.34-2.10787zm5.13734 6.24787V70.86667h1.896v1.76827c.916-1.36774 2.236-2.05214 3.96-2.05214.752 0 1.44.13654 2.068.40414.632.27186 1.1.624 1.412 1.06413.316.43587.532.95573.66 1.55627.076.3916.116 1.07546.116 2.05146v7.65214h-2.112v-7.57187c0-.85627-.08-1.5-.244-1.92813-.164-.424-.456-.764-.872-1.01614-.42-.25573-.908-.38386-1.472-.38386-.9 0-1.672.288-2.328.85573-.652.5724-.97734 1.65213-.97734 3.2484v6.79587zm21.59733-4.00827l2.18.26867c-.344 1.2756-.98 2.2636-1.908 2.96773-.932.69947-2.12 1.05213-3.564 1.05213-1.82 0-3.264-.56053-4.328-1.68026-1.068-1.12027-1.6-2.69214-1.6-4.71614 0-2.09586.54-3.71986 1.616-4.876 1.08-1.15573 2.47467-1.736 4.196-1.736 1.664 0 3.024.56827 4.076 1.70054 1.056 1.13173 1.584 2.7276 1.584 4.77973 0 .1276-.004.31613-.012.564h-9.28c.076 1.36827.464 2.4156 1.15867 3.14013.69733.7276 1.56133 1.0916 2.60133 1.0916.772 0 1.432-.20413 1.98-.61186.548-.40427.98-1.0516 1.3-1.94427zm-6.924-3.41147h6.948c-.092-1.04426-.36-1.8324-.796-2.35213-.672-.81253-1.54533-1.22027-2.612-1.22027-.968 0-1.784.32387-2.44533.9724-.65867.64787-1.02267 1.51614-1.09467 2.6zm11.476-7.312v-2.448h2.10933v2.448zm-2.67067 19.55987l.39467-1.79213c.42533.10826.75733.164.99733.164.432 0 .752-.14374.96-.42814.212-.28386.31867-1 .31867-2.14013v-13.076h2.10933V83.9912c0 1.53174-.2 2.59574-.596 3.2-.508.78014-1.352 1.17187-2.532 1.17187-.572 0-1.124-.07613-1.652-.224zm15.868-6.36413c-.78266.66413-1.53466 1.13186-2.25466 1.40786-.724.2724-1.5.4084-2.328.4084-1.36934 0-2.41734-.3324-3.152-1-.732-.66826-1.1-1.524-1.1-2.56 0-.6124.13466-1.16813.416-1.6724.276-.50413.64-.90773 1.088-1.21186.452-.30374.95466-.536 1.52-.69227.412-.10773 1.036-.2156 1.872-.3156 1.704-.20413 2.96-.44427 3.764-.72813.008-.288.01066-.47187.01066-.54787 0-.86-.19866-1.46827-.59866-1.81613-.536-.47974-1.34-.71574-2.4-.71574-.992 0-1.72534.17187-2.2.51987-.472.34787-.82.964-1.04934 1.84787l-2.05866-.28387c.188-.88013.496-1.59573.924-2.13587.428-.54426 1.052-.96413 1.864-1.25626.812-.29227 1.752-.44014 2.824-.44014 1.064 0 1.924.12814 2.588.376.664.25214 1.152.56414 1.468.94387.312.38067.528.85613.656 1.4364.068.35987.104 1.00787.104 1.94373v2.812c0 1.964.044 3.20414.136 3.72027.088.51987.268 1.01987.532 1.49587h-2.204c-.216-.436-.36-.94787-.42134-1.536zm-.17466-4.71187c-.768.31613-1.916.5796-3.444.8-.868.12387-1.484.264-1.84.42027-.36.1552-.64.38386-.832.68746-.196.3-.29734.63227-.29734 1 0 .56414.21734 1.03187.64134 1.40787.424.3724 1.048.5604 1.868.5604.812 0 1.536-.176 2.16666-.53227.63334-.35573 1.10134-.84373 1.39734-1.45986.22666-.47614.34-1.18027.34-2.10787zm5.13733 6.24787V70.86667h1.884v1.74427c.392-.60787.912-1.1 1.56-1.46827.648-.37187 1.388-.55987 2.21467-.55987.92133 0 1.67733.19214 2.26533.576.592.3844 1.008.91614 1.248 1.60427.988-1.45213 2.268-2.18027 3.844-2.18027 1.236 0 2.184.34427 2.848 1.02814.664.68386.996 1.736.996 3.15626v8.54374h-2.096v-7.8396c0-.84427-.06933-1.452-.20533-1.8244-.13867-.36774-.38667-.66827-.74267-.89587-.36-.224-.784-.34013-1.268-.34013-.87733 0-1.6.29213-2.18.876-.576.58026-.868 1.512-.868 2.79173v7.23227h-2.108v-8.08387c0-.94013-.172-1.64427-.516-2.112-.344-.46813-.904-.70413-1.688-.70413-.59333 0-1.14.15626-1.644.47186-.504.31254-.872.76827-1.096 1.36827-.228.60413-.34133 1.47187-.34133 2.6036v6.45627zm28.24133-4.00827l2.18.26867c-.344 1.2756-.98 2.2636-1.908 2.96773-.932.69947-2.12133 1.05213-3.564 1.05213-1.82133 0-3.264-.56053-4.328-1.68026-1.068-1.12027-1.6-2.69214-1.6-4.71614 0-2.09586.54-3.71986 1.616-4.876 1.08-1.15573 2.476-1.736 4.196-1.736 1.664 0 3.024.56827 4.076 1.70054 1.05467 1.13173 1.58267 2.7276 1.58267 4.77973 0 .1276-.00267.31613-.01067.564h-9.28c.076 1.36827.464 2.4156 1.16 3.14013.696.7276 1.56 1.0916 2.6 1.0916.772 0 1.43067-.20413 1.97867-.61186.54933-.40427.98133-1.0516 1.30133-1.94427zm-6.92533-3.41147h6.948c-.09067-1.04426-.35867-1.8324-.79467-2.35213-.672-.81253-1.544-1.22027-2.612-1.22027-.968 0-1.784.32387-2.444.9724-.66.64787-1.024 1.51614-1.09733 2.6zm11.49067 7.41974V70.86667h1.896v1.76827c.916-1.36774 2.236-2.05214 3.96-2.05214.752 0 1.44.13654 2.068.40414.632.27186 1.1.624 1.412 1.06413.316.43587.532.95573.66 1.55627.076.3916.116 1.07546.116 2.05146v7.65214h-2.112v-7.57187c0-.85627-.08-1.5-.244-1.92813-.164-.424-.456-.764-.872-1.01614-.42-.25573-.908-.38386-1.472-.38386-.9 0-1.672.288-2.328.85573-.652.5724-.976 1.65213-.976 3.2484v6.79587zm17.68533-1.888l.304 1.864c-.592.124-1.124.188-1.592.188-.768 0-1.36-.12027-1.78534-.364-.41866-.24014-.71466-.55987-.88666-.95627-.172-.3916-.26134-1.22347-.26134-2.48747v-7.1604h-1.54666v-1.64013h1.54666V67.7828l2.1-1.264v4.34787h2.12134v1.64013h-2.12134v7.276c0 .60414.03734.98854.10934 1.1604.076.17187.196.30787.364.412.168.09947.408.1516.72.1516.236 0 .54266-.0276.928-.08386zm1.008-4.336c0-2.30414.64-4.012 1.924-5.11974 1.068-.92026 2.37333-1.3844 3.912-1.3844 1.712 0 3.112.55987 4.196 1.68387 1.08933 1.12027 1.62933 2.66827 1.62933 4.64427 0 1.60413-.24 2.864-.72133 3.78026-.47867.91974-1.18 1.63174-2.09467 2.13947-.92133.5084-1.92133.76053-3.00933.76053-1.74 0-3.148-.55626-4.224-1.67666-1.076-1.1156-1.612-2.72334-1.612-4.8276zm2.16933 0c0 1.59586.34667 2.788 1.044 3.57973.696.7964 1.572 1.19213 2.62267 1.19213 1.048 0 1.92133-.4 2.616-1.19573.69333-.79587 1.04-2.012 1.04-3.64427 0-1.5396-.34667-2.70786-1.04667-3.5-.70133-.79226-1.56933-1.1876-2.60933-1.1876-1.05067 0-1.92667.39534-2.62267 1.18334-.69733.78813-1.044 1.98026-1.044 3.5724zm26.70667 6.224v-1.57187c-.788 1.23587-1.948 1.85213-3.47867 1.85213-.99333 0-1.90533-.2724-2.736-.8204-.83333-.54373-1.47733-1.30773-1.93733-2.2916-.45467-.98026-.684-2.10426-.684-3.38026 0-1.24014.208-2.36774.62-3.38014.416-1.01146 1.036-1.78813 1.864-2.324.828-.54013 1.75733-.812 2.78-.812.748 0 1.41733.15987 2 .476.588.31614 1.06533.72814 1.43333 1.236v-6.1636h2.09467v17.17974zm-6.66667-6.212c0 1.5964.336 2.788 1.00667 3.576.672.78813 1.46533 1.18386 2.38133 1.18386.91867 0 1.70267-.3796 2.34667-1.13173.644-.75213.968-1.90413.968-3.45213 0-1.70414-.32667-2.952-.984-3.74787-.656-.80053-1.464-1.19587-2.428-1.19587-.936 0-1.71867.38387-2.348 1.148-.628.764-.94267 1.97187-.94267 3.61974zm10.888-.012c0-2.30414.64-4.012 1.924-5.11974 1.068-.92026 2.37333-1.3844 3.912-1.3844 1.712 0 3.112.55987 4.196 1.68387 1.08933 1.12027 1.62933 2.66827 1.62933 4.64427 0 1.60413-.24 2.864-.72133 3.78026-.47867.91974-1.18 1.63174-2.09467 2.13947-.92133.5084-1.92133.76053-3.00933.76053-1.74 0-3.148-.55626-4.224-1.67666-1.076-1.1156-1.612-2.72334-1.612-4.8276zm2.168 0c0 1.59586.34933 2.788 1.044 3.57973.696.7964 1.572 1.19213 2.624 1.19213 1.048 0 1.92-.4 2.616-1.19573.69333-.79587 1.04-2.012 1.04-3.64427 0-1.5396-.34667-2.70786-1.04667-3.5-.70133-.79226-1.56933-1.1876-2.60933-1.1876-1.052 0-1.928.39534-2.624 1.18334-.69467.78813-1.044 1.98026-1.044 3.5724zm18.94 6.224V66.1312h7.616c1.532 0 2.696.15574 3.49333.4636.79467.30827 1.43067.85214 1.91067 1.63227.47733.78387.712 1.64787.712 2.59173 0 1.22027-.392 2.24427-1.184 3.08014-.788.836-2.008 1.36826-3.656 1.59586.60533.288 1.06.5724 1.372.85627.664.60773 1.292 1.37187 1.88933 2.28387l2.98667 4.676h-2.86l-2.27067-3.576c-.66533-1.0276-1.212-1.81987-1.64533-2.36414-.42667-.54786-.812-.93173-1.152-1.14786-.33867-.21987-.684-.37187-1.036-.45987-.26-.05213-.67867-.07973-1.26667-.07973h-2.636v7.6276zm2.27333-9.59587h4.888c1.036 0 1.852-.10773 2.436-.3244.588-.21573 1.03067-.55947 1.33467-1.03187.30533-.47186.456-.98386.456-1.54 0-.81146-.29067-1.47973-.884-2.00373-.588-.52387-1.51867-.78387-2.79467-.78387h-5.436zm14.496-5.15573V66.1312h2.112v2.42814zm0 14.7516V70.86667h2.112v12.44427zm4.27067-6.224c0-2.30414.63867-4.012 1.924-5.11974 1.06667-.92026 2.37067-1.3844 3.912-1.3844 1.71067 0 3.11067.55987 4.19467 1.68387 1.088 1.12027 1.628 2.66827 1.628 4.64427 0 1.60413-.24 2.864-.71867 3.78026-.48133.91974-1.18133 1.63174-2.09733 2.13947-.91867.5084-1.91867.76053-3.00667.76053-1.74133 0-3.14933-.55626-4.224-1.67666-1.076-1.1156-1.612-2.72334-1.612-4.8276zm2.16667 0c0 1.59586.348 2.788 1.04533 3.57973.69467.7964 1.57067 1.19213 2.624 1.19213 1.04667 0 1.91867-.4 2.616-1.19573.69067-.79587 1.03867-2.012 1.03867-3.64427 0-1.5396-.348-2.70786-1.048-3.5-.7-.79226-1.56667-1.1876-2.60667-1.1876-1.05333 0-1.92933.39534-2.624 1.18334-.69733.78813-1.04533 1.98026-1.04533 3.5724zm26.708 6.224v-1.57187c-.788 1.23587-1.948 1.85213-3.48 1.85213-.992 0-1.904-.2724-2.736-.8204-.832-.54373-1.476-1.30773-1.936-2.2916-.456-.98026-.68267-2.10426-.68267-3.38026 0-1.24014.20667-2.36774.61867-3.38014.41733-1.01146 1.036-1.78813 1.86533-2.324.828-.54013 1.75467-.812 2.77867-.812.748 0 1.416.15987 2 .476.588.31614 1.064.72814 1.43333 1.236v-6.1636h2.09467v17.17974zm-6.668-6.212c0 1.5964.336 2.788 1.00933 3.576.672.78813 1.46267 1.18386 2.37867 1.18386.92 0 1.704-.3796 2.348-1.13173.644-.75213.968-1.90413.968-3.45213 0-1.70414-.328-2.952-.984-3.74787-.656-.80053-1.464-1.19587-2.42667-1.19587-.93733 0-1.72133.38387-2.34933 1.148-.62667.764-.944 1.97187-.944 3.61974zm20.19333 2.20373l2.18.26867c-.344 1.2756-.98 2.2636-1.90667 2.96773-.93333.69947-2.12133 1.05213-3.564 1.05213-1.82133 0-3.264-.56053-4.32933-1.68026-1.068-1.12027-1.6-2.69214-1.6-4.71614 0-2.09586.54133-3.71986 1.616-4.876 1.08-1.15573 2.476-1.736 4.196-1.736 1.66533 0 3.024.56827 4.076 1.70054 1.056 1.13173 1.584 2.7276 1.584 4.77973 0 .1276-.00267.31613-.012.564h-9.28c.076 1.36827.464 2.4156 1.16 3.14013.696.7276 1.56 1.0916 2.60133 1.0916.77067 0 1.43067-.20413 1.97867-.61186.548-.40427.98-1.0516 1.3-1.94427zm-6.924-3.41147h6.948c-.09067-1.04426-.36-1.8324-.796-2.35213-.672-.81253-1.544-1.22027-2.612-1.22027-.968 0-1.784.32387-2.444.9724-.66.64787-1.02267 1.51614-1.096 2.6zm17.532 2.54374l2.052-.27974c.052 1.31147.3 2.212.73733 2.69587.43867.48387 1.04267.72387 1.81467.72387.57333 0 1.064-.128 1.476-.3916.416-.2604.7-.61614.856-1.06454.156-.4516.236-1.16773.236-2.1516v-11.836h2.272v11.70787c0 1.43587-.172 2.55213-.52 3.34013-.34667.788-.9 1.38747-1.652 1.8036-.756.412-1.64.62027-2.656.62027-1.508 0-2.66-.43173-3.464-1.3-.8-.86813-1.184-2.15573-1.152-3.86813zm20.74533 3.34c-.784.66413-1.536 1.13186-2.256 1.40786-.724.2724-1.5.4084-2.328.4084-1.368 0-2.416-.3324-3.152-1-.732-.66826-1.1-1.524-1.1-2.56 0-.6124.136-1.16813.416-1.6724.276-.50413.64-.90773 1.088-1.21186.452-.30374.956-.536 1.52133-.69227.41067-.10773 1.036-.2156 1.87067-.3156 1.704-.20413 2.96-.44427 3.76533-.72813.00667-.288.01067-.47187.01067-.54787 0-.86-.2-1.46827-.59867-1.81613-.53733-.47974-1.34133-.71574-2.4-.71574-.99333 0-1.72533.17187-2.20133.51987-.472.34787-.82.964-1.048 1.84787l-2.06-.28387c.188-.88013.496-1.59573.924-2.13587.428-.54426 1.052-.96413 1.864-1.25626.812-.29227 1.752-.44014 2.824-.44014 1.064 0 1.924.12814 2.588.376.664.25214 1.152.56414 1.468.94387.312.38067.52933.85613.656 1.4364.068.35987.104 1.00787.104 1.94373v2.812c0 1.964.044 3.20414.136 3.72027.088.51987.268 1.01987.532 1.49587h-2.204c-.216-.436-.36-.94787-.42-1.536zm-.17467-4.71187c-.76933.31613-1.91733.5796-3.44533.8-.86667.12387-1.484.264-1.84.42027-.36.1552-.63867.38386-.832.68746-.196.3-.296.63227-.296 1 0 .56414.216 1.03187.64 1.40787.424.3724 1.048.5604 1.868.5604.812 0 1.536-.176 2.168-.53227.632-.35573 1.1-.84373 1.396-1.45986.228-.47614.34133-1.18027.34133-2.10787zm5.136 6.24787V70.86667h1.89734v1.76827c.91466-1.36774 2.23466-2.05214 3.95866-2.05214.75334 0 1.44.13654 2.068.40414.632.27186 1.1.624 1.412 1.06413.316.43587.532.95573.66 1.55627.076.3916.116 1.07546.116 2.05146v7.65214h-2.112v-7.57187c0-.85627-.08-1.5-.244-1.92813-.164-.424-.456-.764-.872-1.01614-.42-.25573-.908-.38386-1.472-.38386-.9 0-1.672.288-2.328.85573-.652.5724-.976 1.65213-.976 3.2484v6.79587zm21.59734-4.00827l2.18.26867c-.344 1.2756-.98 2.2636-1.908 2.96773-.932.69947-2.12 1.05213-3.564 1.05213-1.82 0-3.264-.56053-4.328-1.68026-1.068-1.12027-1.6-2.69214-1.6-4.71614 0-2.09586.54-3.71986 1.616-4.876 1.08-1.15573 2.476-1.736 4.196-1.736 1.66533 0 3.024.56827 4.076 1.70054 1.056 1.13173 1.584 2.7276 1.584 4.77973 0 .1276-.004.31613-.012.564h-9.28c.076 1.36827.464 2.4156 1.16 3.14013.696.7276 1.56 1.0916 2.6 1.0916.772 0 1.432-.20413 1.98-.61186.548-.40427.98-1.0516 1.3-1.94427zm-6.924-3.41147h6.948c-.092-1.04426-.36-1.8324-.796-2.35213-.672-.81253-1.544-1.22027-2.612-1.22027-.968 0-1.784.32387-2.444.9724-.66.64787-1.024 1.51614-1.096 2.6zm11.49733-7.33186V66.1312h2.112v2.42814zm0 14.7516V70.86667h2.112v12.44427zm5.03333 0V70.86667h1.896v1.8844c.484-.87973.932-1.46413 1.344-1.74373.408-.28027.86-.42454 1.352-.42454.712 0 1.432.22814 2.168.68027l-.728 1.95987c-.512-.30787-1.028-.45987-1.544-.45987-.464 0-.876.14-1.244.4156-.368.28013-.628.664-.784 1.15627-.236.74786-.352 1.56813-.352 2.4604v6.5156zm6.96134-6.224c0-2.30414.64-4.012 1.924-5.11974 1.068-.92026 2.372-1.3844 3.912-1.3844 1.712 0 3.112.55987 4.196 1.68387 1.088 1.12027 1.628 2.66827 1.628 4.64427 0 1.60413-.24 2.864-.71867 3.78026-.48133.91974-1.18133 1.63174-2.09733 2.13947-.92.5084-1.92.76053-3.008.76053-1.74 0-3.148-.55626-4.224-1.67666-1.076-1.1156-1.612-2.72334-1.612-4.8276zm2.168 0c0 1.59586.348 2.788 1.044 3.57973.696.7964 1.572 1.19213 2.624 1.19213 1.048 0 1.92-.4 2.61733-1.19573.69067-.79587 1.03867-2.012 1.03867-3.64427 0-1.5396-.348-2.70786-1.048-3.5-.7-.79226-1.568-1.1876-2.608-1.1876-1.052 0-1.928.39534-2.624 1.18334-.696.78813-1.044 1.98026-1.044 3.5724" fill="#fff"/>
  <path d="M14.25933 52.20054c0-20.026 11.8808-36.25933 26.53654-36.25933 14.6552 0 26.53533 16.23333 26.53533 36.25933S55.45107 88.4604 40.79587 88.4604c-14.65574 0-26.53654-16.23386-26.53654-36.25986" fill="#1c63ac" fill-rule="evenodd"/>
  <path d="M62.99947 69.8172l-44.34534-.00626c-1.81613-4.35214-2.97706-9.2864-3.30146-14.54534h50.9504c-.32387 5.26147-1.4864 10.198-3.3036 14.5516" fill="#009748" fill-rule="evenodd"/>
  <path d="M66.3052 55.23547l-50.94947.07907c-.06306-1.0104-.09733-2.03174-.09733-3.06454 0-2.938.26293-5.7932.7556-8.524l5.7844 2.09894c1.50427 0 2.2308-2.23014 2.2308-2.23014l5.28333-10.26933c2.61867-5.64213 4.51254-2.15253 4.51254-2.15253s.9432-.90893 2.00826-1.42867c1.42867-.90933 2.6156 1.10307 2.6156 1.10307s.29227-1.36867 2.48227-1.64267c.4896-.06093 1.6292-8.19946 1.6292-8.19946s.26613-3.01307 1.41413-3.78174c.56294.09627 1.12027.21867 1.6724.36454.76614.8344.7624 2.3016.7624 2.3016l.9464 15.86146 4.65467.0896 7.01413-8.35893c4.55614 6.3756 7.3728 15.12613 7.3728 24.76826 0 1.00574-.03226 2.00107-.09213 2.98547" fill="#7b7979" fill-rule="evenodd"/>
  <path d="M41.25573 53.5464l.61507 1.5312h-.22347a14.58566 14.58566 0 0 0-1.6588 0h-.1912l.62774-1.65413c.01813-.0928.0968-.42613.33893-.89373l.04013-.1052.00734.0176c.54013-.99267 1.80413-2.5224 4.7016-3.67334.61293-.31613 2.01453-.86666 5.19946-1.6516 3.45054-.8292 6.2844-.37293 6.2844-.37293s.2916-1.24013-.26933-1.73747c-.224-.30413-1.07867-.44013-1.07867-.44013s-.21613-.93333-.74586-1.04373l-5.6312-.6432.40626-.69587s5.19374.40773 9.4292-2.13853h-2.9652c-.2312 0-.41866-.18747-.41866-.41827 0-.23173.18746-.4188.41866-.4188h4.17614c.5052-.4.9848-.85147 1.4276-1.36293h-6.7776c-.23134 0-.4188-.18747-.4188-.41827 0-.2312.18746-.41827.4188-.41827h7.42866c.3348-.48066.63947-1.0052.90614-1.5776l-.0088-.0208h-14.238c-2.71254-.12493-4.8688 1.02974-6.13747 3.44694L40.8104 42.326l-2.0552-3.46973c-1.2688-2.41773-3.42493-3.57186-6.13747-3.44586H18.36147v.00053c.27546.59586.59013 1.1396.93546 1.6364h7.4328c.23067 0 .41814.18706.41814.41826 0 .23134-.18747.41827-.41814.41827H19.9448c.4396.51253.91453.964 1.41307 1.36253h4.2224c.2312 0 .41813.18747.41813.41867 0 .23133-.18693.41827-.41813.41827h-3.024c4.11306 2.50266 9.06093 2.09893 9.06093 2.09893s.4468 1.86307 1.7948 3.95573c1.4932 2.10414 3.21667 2.95107 3.21667 2.95107s-.00467.00573-.01254.014l.57974.30267c.20466.10733.28386.35986.17653.56506-.1068.20467-.35987.28387-.56453.17654l-.75947-.3968c-.6692.78546-1.6708 2.04106-1.6 2.44786h3.836l.7364 2.8792H15.34067c.01666.286.03533.5708.05666.8552H35.826c-5.13387 1.86774-9.0276 6.53694-9.6176 12.326-.822 8.06094 5.0676 15.28854 13.12907 16.11054 8.06146.82186 15.288-5.06827 16.1104-13.1292.6964-6.8328-3.42907-13.0656-9.61147-15.30734h20.4224c.02147-.2844.04013-.56973.0568-.8552H42.65307l.73706-2.87813h3.83494c.07333-.42347-1.01254-1.76453-1.67867-2.54013-3.548 1.50053-4.21 3.5724-4.29067 3.88706zm14.16094-8.9308l-.62547.8636-1.52667-.8636h2.15214" fill="#fff" fill-rule="evenodd"/>
  <path d="M31.69373 69.74947c0-5.04533 4.0896-9.1344 9.13387-9.1344l-.6412 1.89427-2.0004.02506 1.6036 1.19587-.5948 1.90987 1.6328-1.1552 1.61933 1.14573c-2.99533.94227-7.10946 2.9396-10.2396 7.1428-.33226-.9464-.5136-1.96413-.5136-3.024zm9.13387-9.1344l.64213 1.89427 2 .02506-1.6036 1.19587.59067 1.89733c.0776-.02453.1552-.0484.23227-.07133 2.52813-.7636 4.78853-.90987 5.69693-.93747-1.64333-2.41666-4.4152-4.00373-7.5584-4.00373zM49.936 69.05c.01707.2312.026.464.026.69947 0 5.0448-4.08907 9.1344-9.1344 9.1344-2.26453 0-4.3364-.82507-5.93227-2.1896l.13387-.17187c5.064-6.5208 12.5792-7.36253 14.762-7.4656l.1448-.0068" fill="#1c63ac"/>
  <path d="M34.22707 73.66667c.1136.1016.20733.20933.2808.324.0728.11507.1176.23013.13426.34627.01774.1256.0048.25-.03906.37293-.0452.12293-.1208.2448-.22854.36507-.0376.04333-.08186.08653-.13133.13186-.04947.0448-.08333.07294-.10147.0848l-.26773-.238.0312-.03426c.024-.00947.05467-.02614.09267-.0496.03853-.02334.0824-.06347.13186-.11867.04-.04533.07387-.09427.10054-.148.02653-.05413.04053-.10827.04266-.16187.00307-.0584-.00626-.11666-.02706-.17506-.02187-.0588-.05894-.1172-.10987-.176-.01413.07706-.0324.14426-.05427.202-.0224.05733-.062.11773-.11866.1824-.04334.04786-.09067.08946-.1428.1228-.05147.0324-.10667.05573-.16507.06826-.07867.01667-.15987.01307-.24427-.00986-.08386-.02454-.17026-.076-.25986-.15574-.14534-.1292-.22134-.28173-.22707-.45933-.00627-.17813.0604-.3448.19893-.50107.07134-.08026.14534-.1412.22294-.18333.0776-.04267.1588-.06667.24426-.0708.09947-.00627.2016.01347.30574.0588.10466.04533.21506.11933.3312.2224zm-.34587.2864c-.0744-.0656-.1416-.11293-.20147-.14053-.06-.02974-.11306-.04427-.1604-.04374-.0344-.00053-.06573.00614-.09386.02027a.26976.26976 0 0 0-.0744.05827c-.01987.02293-.03494.048-.0448.07666-.00987.02707-.0136.05934-.0104.09627.0036.03493.01613.0724.03693.11147.0224.0396.0552.07866.09893.1172.0428.03853.08387.06413.124.0776.03907.0136.07707.0172.11307.01093.03427-.00573.06667-.0192.09787-.04013.0312-.02187.06093-.04894.09013-.0812.02293-.026.0448-.05734.0656-.09427.01933-.03693.03333-.0672.0412-.09067-.0068-.00573-.01627-.01453-.0276-.026-.012-.01253-.03027-.02973-.0548-.05213zm3.01307-1.4312l-.34374.30627-.33386-.19534-.4776.426.15466.35374-.33493.29786-.73227-1.7812.3828-.34066zm-.97974-.06613l-.5916-.34587.27494.6276zm2.0136-1.39947c.05254.0708.08587.14373.1.21973.01507.07507.01254.14854-.00733.2204-.0224.08334-.05987.1588-.11147.226-.05146.0672-.1276.13747-.2276.21254l-.60413.45146-1.08747-1.45613.53694-.40107c.11146-.08333.19586-.14013.25266-.17093.05774-.03067.1224-.052.1932-.06347.07347-.01093.14107-.00266.20214.02654.06093.0276.114.07133.15933.13173.05253.07093.0812.1464.0864.22613.00467.08014-.014.15934-.05573.23747l.00573.00787c.10467-.04907.2052-.06307.30213-.04334.09734.01987.1828.0776.2552.17507zm-.90413-.2568c-.01827-.02453-.04173-.04427-.07187-.05933-.0292-.0156-.06253-.0188-.10053-.0084-.03333.00893-.0704.0276-.10987.05573-.03906.0276-.0944.06773-.16413.11987l-.03333.02493.23026.30787.05574-.0412c.05613-.04267.1036-.0792.1416-.11094.038-.03173.06453-.06146.0792-.0896.0208-.03906.0276-.07386.02026-.10466-.00826-.03174-.024-.06307-.04733-.09427zm.53013.52707c-.0344-.04627-.06973-.07547-.10573-.08694-.03587-.01306-.07867-.0104-.12867.00734-.03426.0124-.076.03693-.12546.0728a13.95962 13.95962 0 0 0-.15414.1136l-.07813.05826.2708.36254.02653-.0192c.1-.07507.17187-.1292.21467-.162.04267-.03334.07653-.07134.10053-.11467.02547-.04427.0348-.0848.02814-.12187-.00574-.038-.0224-.0744-.04854-.10986zm1.02614-1.55107c-.02454-.038-.05374-.06613-.086-.08387-.03227-.01706-.0724-.02186-.1188-.014-.03227.0052-.06614.01827-.10094.038-.036.0188-.0756.0432-.1204.0724l-.13533.08747.26667.41053.11453-.07453c.05987-.03853.10787-.074.14427-.1068.036-.03173.06093-.06773.07346-.10733.01254-.038.01614-.07334.01147-.10614-.00467-.03386-.0208-.0724-.04893-.11573zm1.2692.6792l-.45574.2964-.75826-.30267-.17187.112.36293.55894-.37133.24106-.99013-1.524.62666-.40666c.08534-.05574.1624-.09854.23067-.12814.06827-.02973.14013-.04533.21613-.04586.07654-.00107.1484.01506.2156.04893.0672.0328.12814.09067.18134.17187.07293.11306.10773.2208.1036.32453-.00267.10253-.03547.20773-.09694.31453zm1.0084-.5104l-.8928.47507-.15147-.28494.24947-.1328-.55054-1.03546-.25.1328-.15106-.28494.89266-.4744.15107.2844-.24947.13334.55107 1.03533.24947-.1328zm1.4624-.65787l-1.13747.5068-.7396-1.66093.40733-.18067.59587 1.33907.7312-.32507zm2.0412-.70093l-1.09947.3448-.09533-.30267.34733-.1088-.288-.91666-.3468.1088-.08907-.2828c.05307-.01667.10307-.036.14947-.05787.0468-.02187.08387-.04627.11147-.07293.03173-.0312.05253-.0656.062-.10254.00986-.03693.00826-.07973-.0032-.12653l.36613-.1156.45053 1.4364.3396-.1068zm1.63333-.94387c.03747.1568.00467.3-.09893.43027-.10267.12973-.26414.22133-.48547.27347-.124.03013-.23333.0416-.32867.03586-.09533-.0052-.1776-.02493-.24626-.0588-.0688-.03333-.124-.0776-.16667-.13333-.04227-.05627-.07187-.12027-.08907-.19213-.02133-.08867-.01573-.17294.0172-.25267.03334-.08067.10414-.16093.21294-.2416l-.002-.00733c-.10894-.024-.1948-.06667-.25787-.1276-.06307-.06094-.10573-.13907-.12867-.23387-.03333-.14013.00054-.26987.1032-.38853.10147-.11934.25147-.20214.44947-.24947.2072-.04893.3796-.04747.51613.00627.13747.05253.2224.14626.25467.28173.02027.08387.01307.16453-.0208.24213-.0344.0776-.09693.1516-.188.22187l.00147.00733c.12866.01827.2308.06094.30573.12654.0756.0656.12613.15213.1516.25986zm-.66093-.7056c-.01454-.06-.04787-.10266-.10054-.12813-.05213-.02507-.11506-.02867-.188-.01093-.02653.00573-.05413.01666-.0808.03013-.026.01413-.04946.03027-.0692.04893-.0188.0188-.03226.04067-.04173.06667-.0088.02453-.00987.05107-.0036.07867.01093.04693.03227.08026.0636.10053.03173.01973.07907.036.14213.0484.02347.00467.0552.01.0948.0152.04014.00467.088.00987.14374.01453.02453-.05053.04013-.09533.04693-.1328.00667-.03746.00467-.0812-.00733-.1312zm.2344.82854c-.01307-.05667-.03707-.0968-.07134-.11974-.03386-.0224-.09746-.0432-.19066-.06093-.0276-.00573-.0672-.012-.1188-.01827-.052-.00573-.0948-.01146-.13014-.01613-.02506.03853-.04586.0828-.06146.13333-.0152.04947-.01614.10214-.0032.1568.01986.08174.06306.14107.1308.17654.06773.03493.1468.04173.23693.02026.024-.00573.0516-.01613.08227-.0312.03026-.01506.0552-.03386.07453-.0552.02293-.02453.0396-.05106.05053-.07973.0104-.02867.01094-.06347.00054-.10573zm1.9796-.91454c.02506.15054.02973.29267.01466.42814-.0152.13546-.0532.2536-.11306.35413-.06507.10893-.1536.19747-.26507.2656-.11147.0672-.24747.11413-.4068.14067-.05627.00933-.11827.0156-.18493.01933-.06667.00413-.11094.00413-.13227.002l-.0588-.35253.04573-.00787c.02454.00787.05894.01413.1032.02027.04534.00573.10414.00266.17707-.00987a.68955.68955 0 0 0 .17133-.0516c.05467-.02547.09947-.0588.13547-.09947.03853-.0432.06867-.0948.088-.15306.02027-.05934.02867-.12814.026-.20574-.05933.05107-.11613.09214-.16973.12347-.0532.03013-.12187.052-.20627.06613-.06453.01094-.12707.01307-.18853.0068-.06094-.00733-.11774-.02453-.17187-.05106-.0708-.03707-.13173-.09067-.1828-.16147-.05053-.07133-.08493-.16667-.10467-.2844-.0324-.19213.00574-.3588.11187-.5.10733-.14213.2636-.23067.46987-.26453.10626-.01774.20213-.0188.28853-.00214.08747.01507.1656.04787.23493.09787.0812.05787.14734.13707.20054.23867.05306.1004.09213.2276.1176.38066zm-.44947.0052c-.01613-.09786-.03853-.17653-.0672-.23586-.02853-.06054-.06093-.10574-.09787-.13494-.026-.02186-.05466-.03653-.08546-.0428-.0312-.00613-.06294-.0072-.0948-.00146-.0296.00466-.0572.01506-.0828.03066-.02494.0152-.04787.038-.06867.0688-.01933.02974-.0328.06614-.0412.11094-.00773.04373-.00733.0948.00267.15253.00933.05627.02493.10267.04786.13813.0224.0348.04947.06147.0812.07907.03027.01773.06414.0276.10107.03027.03853.00306.07867.00106.12133-.00627.0344-.00573.07094-.01613.11-.03173.03854-.01614.06867-.03134.08907-.0448-.0016-.0084-.0032-.0208-.0052-.03707-.00107-.01707-.0048-.04267-.01-.07547zm2.34693.86507l-1.3516.10427-.02293-.29907c.09747-.08693.19427-.17853.29067-.27493.09733-.0964.17453-.1792.23226-.24787.08547-.10213.14534-.19013.1792-.2636.0344-.074.0484-.14533.04267-.21413-.00627-.0828-.0364-.14427-.09107-.18534-.05373-.0412-.1276-.0584-.2224-.05106-.07093.00573-.14426.02653-.22093.0636-.07547.03693-.1448.08173-.20827.1348l-.03693.00266-.0308-.40266c.05267-.0296.1312-.06094.236-.09427.10467-.03333.21093-.05413.31813-.0624.21574-.01667.3844.01813.50467.1052.12093.0864.18813.21667.20107.39107.00946.11413-.00987.2256-.05667.33226-.04587.10734-.1204.21987-.22347.33854-.0652.07346-.1308.14173-.19693.2048-.0672.0624-.11453.10613-.14267.1312l.77347-.05987zm.7312-3.512l-.388-.49373.27347-.4224-.5396-.6864-.47507.16666-.378-.4812 2.38854-.77146.43173.54906zm.13387-1.2984l.48493-.74893-.84266.29426zm-2.59213-1.34627c-.138-.1068-.25-.22666-.336-.35893-.08494-.13067-.138-.26973-.15934-.41613-.02133-.14587-.0084-.29734.03854-.45414.04786-.15626.13333-.3136.25626-.47133.11454-.14747.24014-.26467.3776-.35.13694-.08547.28067-.13853.4312-.15947.1448-.01973.2948-.00573.44854.04227.15466.04787.30306.12653.44426.23693.07854.0604.1452.11987.20094.17707.0568.05787.10626.11413.14853.16987.0432.0588.08013.11613.10933.1708.03067.05466.05734.1036.07867.1468l-.35.45106-.0552-.04266a4.67097 4.67097 0 0 0-.03333-.14014c-.0136-.05466-.0328-.11293-.05734-.1744-.02493-.062-.0568-.12293-.0964-.1824-.03906-.05986-.08853-.11346-.14946-.16093-.0672-.052-.14-.09107-.21774-.11667-.07706-.02653-.1604-.0348-.25-.02546-.08586.0088-.17493.04066-.26613.0948-.09107.0552-.1796.13853-.26613.25-.09054.11666-.15.22706-.17814.33013-.0276.10427-.03386.19853-.01866.28187.01506.08533.04626.162.0932.23066.04733.06774.10213.12507.16306.1724.05774.04534.1224.08134.19267.10734a.8264.8264 0 0 0 .21347.052c.05946.00733.1172.01146.17346.01106.0568-.00053.10374-.00213.14174-.0048l.05.03907-.34534.4448a22.70825 22.70825 0 0 1-.1792-.04533c-.0568-.01454-.11346-.03334-.17026-.05614-.07454-.02973-.14174-.06053-.20214-.0928-.0604-.03226-.13746-.0848-.23066-.1572zm-1.30987-.9672l-1.2308-.62186.188-.3724.34427.17386.68653-1.35626-.34427-.17387.188-.3724 1.23014.62187-.188.3724-.3448-.174-.68534 1.35626.34427.174zm-1.69853-.88706l-1.6416-.4348.60253-2.27614.58707.15574-.486 1.83546 1.05466.27974zm-2.24374-1.3344c-.00306.11413-.02973.21466-.0792.3032-.04786.088-.11293.15986-.1952.21613-.0948.0672-.19853.11307-.31146.13907-.11147.026-.25214.0364-.42294.03066l-1.0276-.03226.07494-2.3536.9136.0292c.1896.00626.32813.01666.41506.03226.088.0156.17454.04587.25987.09214.08747.04853.15213.11146.1932.1896.04173.07706.06093.16466.05787.26253-.0036.114-.03694.21347-.1.29893-.06254.08494-.14947.15-.26094.1948v.01254c.15307.03533.2724.10253.3588.20106.0876.09894.1292.22654.124.38374zm-.7468-.99214c.00094-.03853-.00733-.07813-.02666-.11773-.0172-.0396-.05094-.0692-.09947-.09013-.04373-.01814-.09893-.02907-.16507-.03227-.06506-.00413-.15733-.00773-.27653-.012l-.0568-.00147-.01613.49787.0948.00267c.09626.00306.1776.00413.24533.00306.0672-.00106.12133-.00986.16093-.02653.0552-.0224.09214-.05267.1104-.0896.01774-.03853.0276-.0828.0292-.13387zm.11814.96254c.00266-.07454-.0104-.1328-.03854-.17347-.0276-.04213-.07546-.074-.14426-.0964-.0468-.01507-.112-.0244-.19534-.02853a17.05578 17.05578 0 0 0-.26093-.00947l-.1328-.00413-.01827.586.0444.00146c.1708.0052.29267.00894.36667.00987.07333.0016.14213-.00987.2052-.03427.06347-.02453.10827-.05786.1328-.1.02547-.04373.0396-.09373.04107-.15106zm-2.35-.11307c.06146.2844.02186.52133-.11867.70987-.14067.18906-.3792.31986-.71613.3928-.33654.0724-.6084.05146-.81414-.06254-.20466-.11413-.33746-.3136-.39893-.59693l-.3172-1.4692.59693-.1292.30987 1.436c.0344.15987.09373.27133.1776.33533.08387.06414.20107.07974.3516.04747.14787-.03227.24787-.0932.3-.18333.05253-.0896.06093-.21774.02547-.38387l-.30987-1.436.59627-.12867zm-3.1432.00213c.04693.0948.076.19587.08746.30254.01094.10626.00107.2052-.03066.29693-.04267.1244-.10627.23387-.18907.3276-.08227.0932-.20053.17813-.35467.2536l-.3396.16667.33854.688-.5448.26826-1.03907-2.11346.89693-.44067c.1348-.06613.2536-.10933.35667-.1312.10427-.02293.20267-.02867.2964-.0172.11307.014.21253.0536.3.11867.088.0652.162.1584.22187.28026zm-.5568.2896c-.02907-.05946-.07027-.10266-.12387-.12973-.0532-.0276-.10573-.03907-.15627-.03547-.06826.0052-.12973.0204-.1844.0448-.0552.02347-.1276.05734-.21773.10214l-.09373.04533.31093.63333.15627-.07653c.09266-.04533.16613-.08907.22026-.1292.05467-.04173.09427-.08907.11827-.1432.02027-.04747.0276-.09533.02187-.1448-.00467-.05053-.02187-.10573-.0516-.16667zm-1.0604 2.36814l-.45467.398-1.038-1.18707.3448 1.05787-.3156.27546-1.0016-.48226 1.03747 1.186-.43014.37706-1.55053-1.7724.5312-.46413 1.176.54067-.38013-1.23694.53066-.46413zm-2.35414 2.18813l-.94746 1.41507-1.95614-1.31094.94787-1.41466.37813.2532-.61146.91346.33746.22614.56774-.84747.37813.25373-.56773.84734.48386.32346.61147-.91253zm-3.03493 2.0952c-.0552-.02027-.1068-.026-.1552-.0172-.04787.0084-.0932.03653-.13587.08333-.02973.03294-.0552.07454-.0772.12507-.0224.05053-.04573.10987-.0708.17813l-.0744.2068.5968.21507.06307-.17547c.0328-.0912.05573-.16933.0692-.2344.01307-.06466.01147-.12293-.0052-.17613-.01667-.05093-.04-.09213-.07027-.1228-.0308-.03293-.0776-.06-.14013-.0824zm1.85787-.33747l-.25107.698-1.03027.31094-.0948.26346.81254.29267-.2052.56827-2.21507-.7984.34533-.95787c.04734-.13067.09534-.24053.14427-.3296.04893-.08907.11293-.16573.19213-.22973.07974-.0656.16774-.1084.26467-.12867.09627-.02133.2036-.0104.3228.03227.1636.05946.28333.14533.35893.25946.076.1124.1224.25094.14054.41667zm-1.07454 6.6l.38547 1.65934-2.29373.5324-.38494-1.65894.44374-.10306.2484 1.07026.39586-.0916-.23066-.99333.44373-.10307.23067.9932.56666-.13173-.24893-1.07027zm-1.1516 3.02027l.32347.66053 1.70573-.83493.2672.54533-1.70626.8348.32293.66094-.4088.2-.9136-1.86667zm3.4152 1.97147c.1104.13586.19267.2776.24627.426.05267.14693.07293.29373.06093.4412-.0124.14733-.05933.2916-.14053.43373-.08227.14173-.20107.2756-.3568.4016-.1448.11773-.29373.20267-.4464.25467-.15307.05266-.30573.07133-.4572.05733-.14533-.0136-.2876-.06093-.4272-.14213-.13947-.0824-.26613-.1928-.37907-.33187-.062-.07707-.11413-.14947-.15466-.21813-.04227-.0688-.07814-.13547-.10627-.19907-.0292-.06707-.0516-.1312-.06827-.19107-.0172-.0604-.03173-.11413-.04266-.16093l.4432-.35987.04373.05414a4.45054 4.45054 0 0 0 .00053.14373c.0016.05627.0068.1172.01614.1828.0104.06667.02813.1328.05266.2.0244.06667.06094.13027.10934.19013.0536.06614.1156.12027.18533.16294.06933.04333.148.0704.2376.0824.08587.00986.1796-.00107.2812-.0328.10107-.03334.20627-.09387.3156-.18334.11467-.0928.198-.18653.24853-.28133.0504-.0948.0776-.18493.08174-.26973.00466-.08707-.0084-.16827-.03854-.24534-.0308-.07706-.0704-.14533-.1188-.2052a.73819.73819 0 0 0-.16346-.1484c-.06307-.04226-.12867-.0756-.19694-.09906a1.30105 1.30105 0 0 0-.16666-.05c-.05467-.0124-.10107-.02187-.13854-.0276l-.0396-.04947.43654-.35467c.05826.0292.1124.05734.16453.0844.05213.0276.10307.05827.15307.09374.06573.04586.12453.0912.1756.1364.052.0448.11453.11306.18906.2048zm1.12387 1.34893l1.34333 1.04733-1.44746 1.8568-1.3432-1.0468.28026-.35893.86667.6756.24947-.32093-.80427-.62654.27973-.35933.80467.62707.35787-.45934-.8672-.67506zm1.9136 3.2224c-.024.0536-.03333.1052-.02867.15307.0052.04853.02974.09586.074.14226.03067.03174.0708.0604.1192.08534.04854.02613.10574.05373.1724.08333l.20107.08907.25733-.5792-.1708-.07547c-.08853-.04013-.16466-.06827-.22866-.08587-.0636-.01826-.12187-.0204-.17654-.00786-.0516.01306-.09386.03333-.1272.06146-.03426.02814-.0656.07294-.09213.13387zm-.2036-1.8776l.67813.30107.23694 1.04946.25573.11347.35-.78907.55213.2448-.95533 2.15214-.93067-.41307c-.12706-.05627-.23333-.112-.31826-.1672-.0848-.05467-.1568-.1244-.2156-.20827-.05934-.08386-.09587-.17506-.10934-.27346-.01413-.09734.00414-.2036.05574-.31934.0708-.1588.16506-.27186.28386-.33906.1176-.06814.25987-.10467.426-.1104zm6.42653 1.5244l1.6812-.27187.3756 2.32454-1.68133.27186-.07293-.44946 1.08546-.1756-.06506-.40094-1.0068.1624-.07294-.44946 1.0068-.16294-.09226-.574-1.08534.17547zm3.62027.92707c.02187.0548.05267.09693.09067.1272.03853.0296.0896.0448.1536.0448.04426 0 .0928-.0084.14426-.02667.05267-.01613.11254-.03853.18027-.06613l.20307-.0828-.23907-.58747-.17293.0708c-.09.03653-.16347.07133-.22027.1052-.05733.0328-.09947.074-.1276.12187-.02707.0464-.0416.09066-.04427.1344-.0036.04426.00734.09746.03227.1588zM43.78173 80.324l.68707-.28026.92027.55733.25933-.10573-.32653-.79947.55933-.2276.88907 2.18013-.9432.3844c-.12867.05267-.24267.09014-.3416.1136-.098.02294-.198.02654-.29907.01094-.10147-.01574-.19267-.05267-.2724-.11094-.08013-.05733-.14427-.1448-.1916-.262-.06613-.16093-.08173-.30786-.0484-.4396.03333-.13173.10467-.25933.21667-.38333zm2.72094-1.19946l1.3744-1.0052 1.3896 1.9004-1.37454 1.0052-.2692-.3676.88747-.64854-.24013-.32813-.82294.6016-.2692-.3672.82347-.602-.3432-.46987-.8876.64894zm3.59786-.92347c.0448.03853.0912.06253.13854.07133.04786.00934.10053-.00053.1568-.0292.04013-.01973.07866-.04946.1172-.08906.03906-.03907.08226-.08587.1296-.14107l.14426-.16613-.48013-.41414-.12187.14067c-.0636.07347-.11306.138-.14853.19373-.03587.05574-.0552.11147-.05827.1672-.00306.05307.00414.09947.0208.1396.01774.04107.05107.08334.1016.12707zm-1.8552-.35107l.48494-.56146 1.0728.07866.18293-.212-.6532-.564.3948-.45733 1.78173 1.53907-.6656.7708c-.09106.1052-.17493.19066-.25253.25626-.0776.06507-.1652.1136-.262.14587-.09747.03227-.19533.04053-.2928.0244-.09787-.014-.19427-.06293-.29-.14573-.13187-.1136-.21253-.23707-.24227-.36987-.03066-.13227-.0244-.2792.01827-.44013zm1.8792-2.30053l.76814-1.5192 2.10106 1.06187-.76826 1.51986-.40667-.2052.49627-.98133-.36294-.18333-.4604.91053-.40626-.20573.4604-.91-.51934-.26294-.49586.9812zm1.18174-2.15987c-.01507-.112-.02134-.25786-.01987-.43653.0032-.17813.02507-.35147.06627-.5192.09573-.38907.276-.66773.54053-.836.26613-.1676.586-.20627.9584-.114.3552.08693.61347.2688.77653.54427.1636.27546.19587.612.0984 1.00933-.03693.15053-.08586.29013-.14733.41933-.05987.1296-.15107.26814-.27293.41507l-.536-.13173.01613-.06614c.02867-.02346.06933-.05786.122-.1032.05307-.04586.1-.09053.14053-.13533.04747-.05107.0928-.1136.13547-.18813.0432-.0728.07547-.15414.09733-.24267.0256-.10467.03334-.20307.024-.29587-.00986-.09213-.03853-.18013-.08546-.26293-.0452-.07973-.11094-.15053-.1968-.21147-.08494-.05986-.18907-.10573-.31307-.136-.25307-.062-.46307-.04266-.63013.0584-.1672.10147-.28294.2828-.34747.5448-.00573.0224-.01093.04734-.01667.07387-.00573.02813-.0104.0532-.014.07667l.44894.1104.11146-.45627.43174.10627-.25934 1.05466zm.08693-6.38493l-.2276-.55933 1.45987-.59534-1.1124-.01773-.15787-.388.78227-.79067-1.45934.59534-.21613-.53014 2.18013-.88853.26627.65253-.89387.93654 1.29334.0432.26613.65306-2.1808.88907" fill="#7b7979" fill-rule="evenodd"/>
  <path d="M16.84427 17.64694c-2.2792 2.65827-4.29687 5.6916-5.9875 9.00093l1.84844-6.74373c.02604-.0948-.02084-.1932-.1099-.2328l-1.71406-.764c-.09322-.04173-.20261-.0052-.25261.08387l-4.6776 8.3c-.05.08853-.02448.2004.05885.2588.08386.05826.1974.04373.26355-.03334 0 0 3.32916-3.8864 3.97968-4.64693l-.45364 5.97867a50.41198 50.41198 0 0 0-.75417 1.75946c-1.43228 3.52027-2.5052 7.28173-3.19687 11.16347l-.12656-7.2828c-.00157-.09733-.07448-.1792-.17084-.19213l-1.8599-.25214c-.10103-.0136-.19583.05214-.21926.1516L1.31563 43.476c-.02292.09894.03333.19894.12968.23187.09636.0328.20157-.0136.24376-.10627 0 0 2.10208-4.6652 2.51301-5.5776l1.28281 6.04627c-.37082 2.69427-.56093 5.43387-.56093 8.1792 0 1.5016.05364 2.98907.16093 4.46253l-1.90156-6.9636c-.02552-.09426-.11666-.1552-.21302-.14426l-1.86406.2152c-.10156.01133-.1776.0984-.175.2004l.19948 9.52506c.00208.1016.08125.18494.1823.19267.10156.0084.1927-.06253.20989-.16253 0 0 .88645-5.03947 1.06041-6.02547l2.71927 5.51307c.49324 4.37386 1.46719 8.6068 2.9125 12.6536l-3.67031-6.138c-.05052-.08387-.15416-.1188-.24479-.08174l-1.7375.70827c-.09427.03853-.14375.14267-.11406.24067l2.75364 9.12026c.0297.09747.12813.15627.22813.13707.09323-.0188.15938-.10053.15938-.19387 0-.00666 0-.01293-.00104-.01973 0 0-.5021-5.09213-.6-6.08853l4.08333 4.55626c1.63281 3.99427 3.72864 7.69054 6.18332 10.92547l-5.2703-4.5296c-.07397-.06413-.18386-.06413-.25782-.00053l-1.42396 1.22133c-.0776.06613-.09219.18067-.03281.264l5.49742 7.78128c.0588.08281.1708.10781.2588.05781a.1978.1978 0 0 0 .10054-.17186.19284.19284 0 0 0-.01774-.08074s-2.08589-4.67236-2.49422-5.58596l5.17396 2.95107c.70413.82493 1.4328 1.6136 2.18493 2.36307.4.39838 1.04733.39734 1.44627-.00267.39853-.4.39693-1.04787-.00307-1.4464-.78853-.78587-1.55107-1.61813-2.28493-2.49267l-.45307-4.85773c.6656.77133 3.97493 4.60467 3.97493 4.60467a.19763.19763 0 0 0 .26467.03173c.08333-.05933.1072-.1724.05573-.2604l-4.8188-8.2432c-.04893-.0844-.15213-.11987-.24266-.08387l-1.7568.69267a.19767.19767 0 0 0-.11667.24213l2.01093 6.52814c-2.5484-3.31347-4.70417-7.15147-6.34012-11.31814l.97552-5.1016c.43282.89534 2.7062 5.59894 2.7062 5.59894.0448.0912.15107.1344.2464.09893.09587-.0348.14894-.13693.12294-.23533l-2.42292-9.23547c-.02448-.0948-.11459-.1568-.21147-.14693l-1.87812.1944c-.10156.01093-.17812.09626-.17708.1984l.0573 7.07653c-1.4422-4.04693-2.3948-8.28853-2.84949-12.67707l2.29375-4.80106c.19115.976 1.19635 6.10213 1.19635 6.10213a.19632.19632 0 0 0 .21302.15827c.10104-.00934.17864-.0948.17864-.19627l.00052-9.54853c0-.09734-.07134-.18067-.1677-.19534l-1.86563-.28853c-.10052-.0156-.19687.048-.22187.14693l-1.77292 6.9864c-.10937-1.4624-.16458-2.94-.16458-4.43173 0-2.84787.21042-5.66347.61666-8.41253l3.33699-4.08334c-.04532.99334-.28437 6.21147-.28437 6.21147 0 .0032-.00052.00627-.00052.00947 0 .09733.07238.1812.16978.1952.10104.01466.19583-.04947.22031-.14894l2.26407-9.27493c.02344-.0948-.02604-.1928-.11563-.22973l-1.74427-.72293c-.09478-.03907-.20312 0-.25052.09013l-3.3177 6.25106c.82238-4.5928 2.19686-8.97613 4.05885-12.98706l4.39428-2.81973-2.19533 5.8172a.19395.19395 0 0 0-.01307.06973c0 .07293.04067.14333.11053.1776.09107.0448.20147.01253.2552-.07333l5.0276-8.1172c.05147-.0828.0348-.1912-.03906-.25467l-1.4344-1.2276c-.0776-.06627-.19267-.06253-.26614.00827l-5.12608 4.9484c1.62502-3.2124 3.57235-6.1604 5.80675-8.7552l7.25987-6.2328c.03866-.03334.04533-.09014.01626-.13174-.02973-.04173-.086-.05413-.12973-.02866 0 0-2.14787 1.224-3.79787 2.16506l4.7776-6.1296c.03227-.04066.02707-.09906-.01093-.13386-.03867-.03494-.098-.03387-.13493.00146l-5.586 5.324c.76146-1.724 1.73493-3.92546 1.73493-3.92546a.09878.09878 0 0 0-.0412-.12614c-.0448-.02546-.10053-.01293-.1296.02867l-5.5688 7.9052zm43.83493 69.7228c.35627-.3244.862-.38227 1.27027-.1828-.83907-.7468-1.4328-1.82494-1.59214-3.0744-.18133-1.41614.23227-2.75947 1.0328-3.73547 1.0072.73653 1.738 1.91413 1.9276 3.30893.09374-.15.19534-.29693.30574-.44013.7068-.9136 1.6552-1.51827 2.6572-1.78187-.21294-.34426-.23534-.79106-.02027-1.16706.19173-.33494.52706-.53547.88386-.56987-.0552-.11773-.09013-.24373-.10253-.37347-.32453.1516-.7152.148-1.05-.0432-.54693-.31306-.73706-1.0104-.424-1.55773.31294-.54693 1.0104-.73707 1.55773-.424.33334.19107.5344.52493.56934.88067.1136-.05307.23546-.08694.35933-.10107-.14427-.32133-.138-.7056.05-1.0348.22973-.40107.6652-.6104 1.09747-.5704-.9808-.48947-1.82094-1.3448-2.3104-2.47027-.5688-1.3088-.54693-2.714-.05054-3.87453 1.1724.4256 2.20307 1.35213 2.77494 2.63867a5.21158 5.21158 0 0 1 .1704-.50734c.4432-1.12453 1.23426-1.99746 2.17706-2.524-.3652-.27026-.54853-.74533-.42506-1.21146.09893-.37294.37133-.6536.70733-.7776a1.15993 1.15993 0 0 1-.1948-.33494c-.27507.23027-.6532.3272-1.02547.22814-.60946-.16187-.9724-.7864-.81053-1.39574.16147-.60946.78653-.97186 1.39587-.8104.37186.09894.65106.36974.77653.70414a1.15935 1.15935 0 0 1 .32187-.1896c-.2224-.27347-.31507-.6464-.21814-1.0136.13014-.48907.55934-.81974 1.03854-.8468-1.1052-.22347-2.1656-.85987-2.93387-1.8656-.86613-1.13494-1.18133-2.50427-.9776-3.75 1.24013.13226 2.46293.7848 3.326 1.8968a5.31184 5.31184 0 0 1 .04427-.53334c.1568-1.1708.69426-2.18906 1.45626-2.9224-.3688-.19626-.6156-.588-.60573-1.03386.0088-.38587.20733-.7224.5052-.9224-.1052-.07707-.19587-.17187-.26867-.2796-.21306.288-.55786.47133-.94333.46293-.63013-.014-1.12907-.5364-1.11507-1.16667.0136-.63013.536-1.1296 1.16667-1.1156.38387.00894.71973.20627.91973.50214.07507-.10054.16574-.18854.26827-.25987-.28013-.21413-.45773-.55427-.44947-.93387.01094-.4912.33027-.90213.7688-1.0532-1.1084.01414-2.25946-.3692-3.2156-1.16293-1.098-.912-1.71146-2.1756-1.79226-3.43547 1.23853-.14893 2.576.21307 3.66666 1.10307-.0344-.1724-.05986-.34947-.07653-.52907-.10733-1.15106.174-2.24013.72707-3.11613-.4016-.11413-.72547-.4448-.8104-.8824-.07347-.37867.05-.75.2984-1.00773-.11867-.05427-.2276-.12707-.32134-.21667-.14733.32653-.44533.57867-.824.65147-.61866.11986-1.2176-.2848-1.33746-.9036-.11974-.6192.28546-1.21774.90413-1.33747.3776-.07293.74747.04947 1.00573.2964.0516-.11467.12187-.21933.20734-.31147-.31934-.14906-.56507-.44426-.63747-.8172-.0828-.4276.08533-.84586.40107-1.10213-1.05427.2328-2.22454.10627-3.30267-.438-1.27347-.64427-2.1536-1.7396-2.51307-2.94946 1.174-.42134 2.55894-.36614 3.8204.25826a5.17054 5.17054 0 0 1-.1928-.49946c-.3828-1.16507-.3244-2.3604.08134-3.37814-.46827.04747-.93654-.20053-1.148-.65053-.16347-.34947-.13534-.7396.04173-1.05093a1.13753 1.13753 0 0 1-.36413-.1308c-.06294.35266-.29.67026-.63907.83386-.5708.26774-1.2504.0224-1.51813-.5484-.26774-.57093-.02187-1.25053.5484-1.51773.3484-.1636.73693-.136 1.04733.04013.0224-.12346.06467-.2428.12507-.35213-.3464-.06667-.65734-.29267-.81827-.6364-.2068-.44067-.1072-.9464.21147-1.2772-.952.52867-2.12293.74013-3.3208.5152-1.40307-.2636-2.5536-1.06987-3.2364-2.13187 1.0104-.73173 2.3556-1.06506 3.7416-.81666a5.10392 5.10392 0 0 1-.32493-.426c-.68334-.99894-.96147-2.14587-.8672-3.224-.4272.15786-.92507.0496-1.2464-.31094-.25734-.28746-.34174-.6692-.2604-1.01866-.1292.01506-.25987.00773-.38707-.02134.04067.35627-.08587.72547-.37333.98227-.47094.41973-1.19174.37867-1.612-.09173-.41987-.47027-.37867-1.1916.0916-1.61147.28706-.25613.6672-.34053 1.0152-.26093-.01414-.1244-.00734-.25054.01866-.37334-.35106.03534-.71293-.09226-.9656-.3756-.25306-.28333-.33853-.65773-.26346-1.00306-.73654.7708-1.76147 1.31453-2.94227 1.47133-1.41453.188-2.75987-.2188-3.7396-1.01413.7308-1.01094 1.9052-1.74787 3.29853-1.94467a5.31993 5.31993 0 0 1-.44066-.30267c-1.13387-.86773-1.79694-2.10626-1.9276-3.362 1.24426-.2 2.61093.1172 3.74213.98334a5.1714 5.1714 0 0 1 .41147.35053c-.1656-1.38907.2412-2.7068 1.02346-3.67027 1.0208.73854 1.76254 1.92867 1.95054 3.34107.16346 1.236-.1256 2.41827-.73134 3.35053.4428-.2.98134-.10106 1.322.28027.25254.28333.338.65773.26347 1.00253.1172-.01146.23547-.0052.35053.01934-.03173-.3484.09587-.7068.37654-.95734.4704-.41973 1.19173-.37866 1.612.09174.41973.47026.37866 1.1916-.0916 1.61146-.28187.25147-.65374.33694-.99694.26507a1.14035 1.14035 0 0 1-.02453.364c.35627-.04107.72613.086.98333.374.34534.38747.37867.94533.11614 1.36507 1.06573.29173 2.062.97506 2.76146 1.99746.10267.15107.19693.3052.28133.462.27707-1.37186 1.0744-2.4964 2.11867-3.16773.73907 1.0208 1.0724 2.38333.80947 3.78333-.2552 1.3588-1.01987 2.48067-2.03227 3.16974.53013-.15414 1.10933.09586 1.35147.612.16093.34373.136.72706-.0344 1.036.11573.0224.2272.0624.3308.11866.0688-.3432.29373-.64946.6344-.80933.5708-.26827 1.25053-.0224 1.51813.5484.26773.5708.0224 1.25-.5484 1.51773-.3416.1604-.7224.1364-1.03013-.03066-.02454.11973-.0672.23533-.12814.3416.35307.06306.67134.29066.83534.6396.2224.47493.0896 1.02546-.29054 1.35106.95827.57547 1.73947 1.51814 2.13067 2.70987.0568.17347.10413.34787.14173.5224.64787-1.24013 1.7276-2.0984 2.91707-2.4516.4256 1.186.36573 2.58707-.27707 3.85893-.57853 1.14427-1.52186 1.9708-2.5848 2.388.48227.0552.89427.41613.99107.91773.07187.3728-.0468.73854-.28747.99627.1068.04947.2052.1156.2916.19587.15054-.3156.44387-.55787.8136-.6292.61934-.11974 1.21774.28493 1.33747.90413.11933.6188-.28533 1.2172-.90413 1.33707-.3708.07133-.73387-.0448-.9916-.2828a1.14927 1.14927 0 0 1-.20787.30053c.32707.14733.5792.4452.65253.8244.09174.47347-.12386.93493-.50773 1.17973.72653.76347 1.2192 1.7984 1.3276 2.97027.0172.18227.02453.36253.02187.54067.90826-1.06454 2.1516-1.6604 3.39066-1.73907.15054 1.25107-.2204 2.60307-1.1308 3.69947-.8568 1.03226-2.0244 1.6364-3.2072 1.77293.51347.12027.89107.58693.87854 1.1364-.00827.3792-.20147.71147-.49107.91253.0932.07134.17547.1568.2432.2532.214-.27613.55213-.45053.92813-.44226.63014.01413 1.12974.536 1.11614 1.16666-.014.63027-.53694 1.1292-1.1672 1.11507-.37707-.00827-.70734-.19893-.9088-.48587a1.15073 1.15073 0 0 1-.26667.24947c.28853.21307.47187.55827.46347.94373-.01147.50894-.35467.93227-.81814 1.06934.552.91293.80934 2.04626.6504 3.22853-.02386.18133-.05773.35893-.09946.53187 1.12346-.83387 2.4688-1.136 3.69373-.93547-.13373 1.25267-.79787 2.488-1.93067 3.35267-1.0792.82386-2.37133 1.14946-3.56666 1.0036.5084.22133.79373.78693.64733 1.33906-.09733.36774-.36347.6448-.69267.7724a1.1438 1.1438 0 0 1 .1776.3036c.27294-.21866.64227-.30933 1.00627-.2124.60933.16134.97187.7864.8104 1.39574-.162.60946-.7864.97186-1.39587.8104-.36453-.0968-.64106-.35934-.76973-.68587a1.15168 1.15168 0 0 1-.31773.17973c.23026.2744.3276.6536.22866 1.026-.13226.4984-.57453.83174-1.06453.8484.352 1.04267.3432 2.24694-.10893 3.39374-.06667.1704-.14214.3344-.2244.4928 1.29053-.54067 2.6692-.51147 3.8104-.02347-.43027 1.18493-1.3708 2.22387-2.6776 2.79213-1.2136.5276-2.50987.54694-3.61667.15214.388.3516.49427.93746.22347 1.41146-.18867.3296-.51667.5296-.86774.56814.0484.10733.08014.22146.0932.33866.32027-.1412.70054-.13333 1.02707.05307.54747.3136.73693 1.01093.42453 1.55787-.31306.5468-1.01.73693-1.55733.42386-.3276-.18693-.5276-.5124-.5672-.86093-.11253.05-.23173.0808-.3536.09227.15147.32493.1484.7156-.0428 1.05053-.24627.43067-.73173.64-1.19373.55667.012 1.05626-.33387 2.15213-1.05573 3.08546-.112.14427-.2296.2812-.35307.40987 1.39066-.1588 2.70573.25413 3.6656 1.0412-.74374 1.01773-1.93747 1.7536-3.35053 1.9344-1.34214.17133-2.61827-.1912-3.5792-.91093.33386.464.27506 1.11453-.1572 1.5088-.28027.25626-.65374.34582-.99947.27493a1.15339 1.15339 0 0 1-.0152.3511c.34747-.03594.70733.0875.96147.36563.42506.46563.39226 1.1875-.07334 1.6125-.4652.425-1.18706.39218-1.61253-.07344-.25413-.27812-.34427-.64896-.27613-.99323-.12187.01303-.24467.00573-.36454-.0203.04534.35571-.0776.72707-.36253.98697-.46507.425-1.18693.39218-1.612-.07292-.42547-.46562-.39267-1.1875.07293-1.61302.2844-.25989.66574-.34844 1.01574-.27136a1.15696 1.15696 0 0 1 .01666-.387c-.35533.0448-.72613-.07813-.986-.36253-.42493-.4656-.39213-1.18747.07294-1.61293.4656-.42507 1.18746-.39227 1.61253.07346.25933.28374.3484.66294.27293 1.0124.1244-.0156.2504-.01093.37334.01467-.0396-.35107.08386-.71467.36413-.97093" fill="#009748" fill-rule="evenodd"/>
  <path d="M68.0052 90.91146c-2.96147 1.8349-6.4536 2.89428-10.19373 2.89428-3.74267 0-7.23694-1.06095-10.19947-2.89844l-2.25467 3.65104-6.52706-4.04323s-1.20374 1.94792-2.2824 3.69063c-3.80574-2.1021-8.18174-3.29844-12.83694-3.29844-5.13173 0-9.924 1.45364-13.98697 3.9724 0 0 2.89896 4.69478 3.7875 6.13333 2.96254-1.8375 6.45734-2.89844 10.19947-2.89844 3.74014 0 7.23227 1.0599 10.1932 2.89479l2.26667-3.6625 6.45213 3.99375c.38174-.6125 1.41974-2.23021 2.3276-3.64063 3.81147 2.10574 8.19587 3.28126 12.86094 3.28126 5.13173 0 9.92453-1.42188 13.98746-3.94063 0 0-3.064-4.95052-3.79373-6.12917zM45.08747 14.238l-4.2432-3.0036-4.24374 3.0036 1.54534-4.964-4.16774-3.10787 5.1984-.064 1.66774-4.92453 1.6672 4.92453 5.19893.064L43.54213 9.274zm-4.25987.82453c-15.12653 0-27.43333 16.68227-27.43333 37.18746 0 20.5052 12.3068 37.18698 27.43333 37.18698 15.1276 0 27.4344-16.68178 27.4344-37.18698S55.9552 15.06254 40.8276 15.06254zm0 72.48066c-14.0984 0-25.5692-15.8328-25.5692-35.29373 0-19.46093 11.4708-35.2932 25.5692-35.2932 14.09947 0 25.57027 15.83227 25.57027 35.2932 0 19.46093-11.4708 35.29373-25.57027 35.29373" fill="#b49b1e"/>
  <path d="M48.56093 94.30938l.28227.12917c.38027.17343.18707.59635-.03227 1.07812-.29893.6547-.47813.875-.81093.72292l-.264-.12032zm-1.55466 1.96198l.89013.40624c.93427.42604 1.2916-.52134 1.4744-.92344.37187-.81405.45573-1.3526-.26093-1.67968l-.912-.41614zm4.09946 1.59583l.13334-.42136-.95267-.30052.25267-.8.85.26824.13226-.42136-.84893-.2677.21253-.67553.92187.29115.1328-.42136-1.49427-.47135-.86466 2.73854zm3.15734-2.22708l-.35107 2.21563c-.01933.12186-.1328.22916-.26667.20729-.3104-.04896-.20573-.37865-.16986-.60625l-.6052-.09636c-.10147.6448-.12134.99584.70786 1.12708.42027.06666.85467-.08176.9328-.57708l.3448-2.17604zm1.15093 3.05312l.20733-.62292.8172.05625.11454.64636.6308.04427-.5776-2.91927-.7896-.05521-.99427 2.80937zm.92813-1.01563l-.57133-.0401.3604-1.21875.0084.00052zm2.05214 1.10314L58.3 96.68282l.00787-.00052.8776 2.06301.79-.03593-.12907-2.86875-.56.025.0896 1.98645-.00827.00052-.85266-1.9526-.8104.03698.12973 2.86876zm4.00733-.40782l-.06827-.43594-.9864.15521-.13026-.82916.88026-.13855-.0688-.43593-.8808.13853-.10986-.69948.95466-.15052-.06866-.43593-1.548.24375.44693 2.83698zm1.12133-.23281l-.59693-2.80885-.58747.125.59747 2.80885zm.60054-2.69792l.2552-.07656c.1828-.0547.32293.01093.4016.27396.05253.175.05666.42344-.17187.49219l-.25533.07656zm.35626 1.18855l.14894-.04428c.4416-.1323.4948.15469.59266.48177.05374.1797.0948.37084.22134.51563l.5636-.16927c-.08747-.09792-.25414-.61303-.3068-.78855-.1484-.49478-.5312-.41301-.66147-.39114l-.00253-.0073c.3552-.17344.41346-.47708.30826-.8276-.14066-.46822-.46773-.64478-.85986-.52708l-1.06307.31927.8256 2.75052.57547-.1724zm2.9276-.16355c-.31147.13177-.47613-.14375-.7636-.82136-.28746-.67708-.37133-.98697-.0604-1.11927.31147-.13229.476.14375.764.82084.28707.6776.37147.9875.06 1.11979zm.16773.3953c.91187-.38697.626-1.0604.33174-1.7526-.2964-.69947-.5792-1.36562-1.4912-.97863-.91147.38697-.62867 1.05312-.33173 1.7526.29373.69166.57973 1.36562 1.4912.97864zm-28.2256-2.94478l.2256.14219c.16094.1026.20307.25156.05614.48333-.09787.15417-.2828.3198-.48427.19219l-.22506-.14271zm-.664 1.04792l.13067.08281c.3896.24739.20787.47552.02454.76406-.1.15781-.21774.31406-.24427.50469l.49733.3151c.01667-.1302.29587-.59374.39427-.74843.27653-.43698-.03533-.6724-.138-.75574l.00467-.00676c.36306.15468.6308 0 .82653-.3099.262-.41302.1808-.775-.16507-.99427l-.93693-.59427-1.53747 2.425.50667.32187zm1.44107 2.32187l1.538-2.42552-.50773-.32187-1.53747 2.42604zm1.6448.59062c-.28533-.18124-.152-.47342.24174-1.09478.39373-.62136.60146-.86667.88693-.68594.28547.18124.1516.47343-.24213 1.09479-.39387.62136-.60107.86667-.88654.68593zm-.23013.36251c.8364.53073 1.22853-.0875 1.63067-.7224.4068-.64167.79426-1.25312-.04214-1.78333-.83653-.53074-1.224.08125-1.6308.72292-.402.63437-.79426 1.2526.04227 1.78281zm-25.71253-.78125l-.19174-.39792-.89946.43385-.364-.75624.80253-.38699-.1916-.39792-.80267.38699-.3072-.6375.87027-.4198-.19173-.39791-1.4114.68073 1.24686 2.58697zm1.91666-1.4625c-.29373-.85365-1.42133-.4151-1.59893-.93021-.06467-.18803.00933-.32708.19373-.39063.2296-.07916.3344.11615.40467.31927l.55253-.19061c-.15773-.58074-.51813-.73439-1.07026-.54428-.69214.23854-.7792.64688-.6328 1.07188.27866.80885 1.43226.4453 1.60053.93385.0636.18437.012.34063-.17973.40677-.312.10782-.3984-.10677-.488-.36614l-.56774.1953c.13187.48074.40574.84896 1.10947.6073.43227-.14896.91867-.40938.67653-1.1125zm-.08173-2.0948l.09947.46667.6536-.13905.49786 2.3427.5876-.12552-.498-2.34218.65374-.13907-.09947-.46667zm3.0448 2.32918l.08693-.65104.81347-.09688.23333.61302.62814-.075-1.114-2.75938-.786.09376-.45 2.94582zm.72187-1.17136l-.5688.0677.12546-1.26457.0084-.00105zm2.03013-1.47864l.3104.00572c.41773.00729.40947.4724.4 1.00157-.0124.7203-.08853.99323-.45467.98645l-.29066-.00469zm-.64267 2.41978l.97814.01719c1.026.01823.976-.99323.98386-1.4349.0156-.89426-.1224-1.42187-.91-1.43593l-1.002-.0177zm3.43014-.2224c-.3348-.04738-.33387-.36874-.2312-1.09738.10213-.72866.19013-1.03803.52506-.99063.33427.0474.33374.36823.2312 1.09687-.10266.72865-.19013 1.03802-.52506.99114zm-.05987.425c.9808.13803 1.0828-.58697 1.18747-1.33124.10573-.75209.2068-1.46928-.7744-1.60677-.9808-.13803-1.08134.57864-1.18747 1.33125-.10427.74427-.20627 1.46875.7744 1.60676zm3.9464-1.74738l.2984.08541c.40107.11459.27293.56197.12707 1.07083-.1984.6922-.34267.93646-.6948.83542l-.27907-.08021zm-1.24747 2.1703l.94067.2698c.9864.2828 1.2-.70677 1.32133-1.13125.24694-.86041.25054-1.40573-.5068-1.62292l-.96346-.27604zm3.44854.73855c-.3136-.12656-.23494-.43803.04053-1.12032.27613-.6823.43547-.96093.74907-.83437.31346.12656.2348.43854-.04067 1.12084-.2756.68177-.43547.96041-.74893.83385zm-.16094.39844c.91814.37135 1.19267-.30781 1.47387-1.0047.28493-.70469.55627-1.37551-.3624-1.74635-.91827-.37135-1.18907.3-1.47453 1.00469-.2812.69688-.5552 1.375.36306 1.74636" fill="#fff" fill-rule="evenodd"/>
</svg>
